<svg version="1.1" viewBox="0.0 0.0 960.0 540.0" fill="none" stroke="none" stroke-linecap="square" stroke-miterlimit="10" xmlns:xlink="http://www.w3.org/1999/xlink" xmlns="http://www.w3.org/2000/svg"><clipPath id="g31b98b85ded_0_521.0"><path d="m0 0l960.0 0l0 540.0l-960.0 0l0 -540.0z" clip-rule="nonzero"/></clipPath><g clip-path="url(#g31b98b85ded_0_521.0)"><path fill="#f3f0df" d="m0 0l960.0 0l0 540.0l-960.0 0z" fill-rule="evenodd"/><path fill="#000000" fill-opacity="0.0" d="m20.721785 148.71916l900.8819 0l0 348.31494l-900.8819 0z" fill-rule="evenodd"/><path fill="#005088" d="m41.87863 175.46103l0 -1.8125l10.03125 0l0 1.8125l-10.03125 0z" fill-rule="nonzero"/><path fill="#005088" d="m79.62804 182.03915l0 -17.734375l2.125 0l0 17.734375l-2.125 0zm5.7861633 0l0 -12.765625l1.9375 0l0.09375 2.234375l0 0q0.609375 -1.203125 1.734375 -1.859375q1.125 -0.671875 2.578125 -0.671875q1.484375 0 2.578125 0.59375q1.09375 0.59375 1.703125 1.796875q0.609375 1.203125 0.609375 3.046875l0 7.625l-2.140625 0l0 -7.390625q0 -1.9375 -0.84375 -2.890625q-0.84375 -0.96875 -2.390625 -0.96875q-1.0625 0 -1.90625 0.53125q-0.828125 0.515625 -1.328125 1.5q-0.484375 0.96875 -0.484375 2.40625l0 6.8125l-2.140625 0zm19.553986 0q-1.140625 0 -1.984375 -0.34375q-0.828125 -0.359375 -1.265625 -1.203125q-0.4375 -0.859375 -0.4375 -2.296875l0 -7.125l-2.234375 0l0 -1.796875l2.234375 0l0.28125 -3.09375l1.84375 0l0 3.09375l3.703125 0l0 1.796875l-3.703125 0l0 7.125q0 1.1875 0.484375 1.609375q0.484375 0.40625 1.6875 0.40625l1.375 0l0 1.828125l-1.984375 0zm10.167725 0.296875q-1.78125 0 -3.171875 -0.828125q-1.390625 -0.84375 -2.1875 -2.34375q-0.78125 -1.5 -0.78125 -3.5q0 -2.03125 0.765625 -3.515625q0.78125 -1.5 2.1875 -2.328125q1.40625 -0.84375 3.234375 -0.84375q1.875 0 3.1875 0.84375q1.3125 0.828125 2.015625 2.1875q0.703125 1.34375 0.703125 2.96875q0 0.25 0 0.53125q0 0.28125 -0.03125 0.625l-10.453125 0l0 -1.640625l8.375 0q-0.078125 -1.75 -1.15625 -2.734375q-1.078125 -0.984375 -2.6875 -0.984375q-1.0625 0 -2.0 0.5q-0.9375 0.484375 -1.5 1.4375q-0.5625 0.9375 -0.5625 2.359375l0 0.71875q0 1.5625 0.5625 2.625q0.578125 1.0625 1.5 1.59375q0.9375 0.53125 2.0 0.53125q1.34375 0 2.203125 -0.59375q0.875 -0.59375 1.28125 -1.625l2.109375 0q-0.328125 1.15625 -1.09375 2.0625q-0.75 0.890625 -1.890625 1.421875q-1.125 0.53125 -2.609375 0.53125zm8.777023 -0.296875l0 -12.765625l1.9375 0l0.140625 2.4375l0 0q0.4375 -0.859375 1.109375 -1.46875q0.671875 -0.609375 1.609375 -0.9375q0.953125 -0.328125 2.171875 -0.328125l0 2.21875l-0.78125 0q-0.8125 0 -1.546875 0.21875q-0.734375 0.21875 -1.3125 0.703125q-0.5625 0.46875 -0.875 1.296875q-0.3125 0.828125 -0.3125 2.046875l0 6.578125l-2.140625 0zm14.499451 0.296875q-1.78125 0 -3.171875 -0.828125q-1.390625 -0.84375 -2.1875 -2.34375q-0.78125 -1.5 -0.78125 -3.5q0 -2.03125 0.765625 -3.515625q0.78125 -1.5 2.1875 -2.328125q1.40625 -0.84375 3.234375 -0.84375q1.875 0 3.1875 0.84375q1.3125 0.828125 2.015625 2.1875q0.703125 1.34375 0.703125 2.96875q0 0.25 0 0.53125q0 0.28125 -0.03125 0.625l-10.453125 0l0 -1.640625l8.375 0q-0.078125 -1.75 -1.15625 -2.734375q-1.078125 -0.984375 -2.6875 -0.984375q-1.0625 0 -2.0 0.5q-0.9375 0.484375 -1.5 1.4375q-0.5625 0.9375 -0.5625 2.359375l0 0.71875q0 1.5625 0.5625 2.625q0.578125 1.0625 1.5 1.59375q0.9375 0.53125 2.0 0.53125q1.34375 0 2.203125 -0.59375q0.875 -0.59375 1.28125 -1.625l2.109375 0q-0.328125 1.15625 -1.09375 2.0625q-0.75 0.890625 -1.890625 1.421875q-1.125 0.53125 -2.609375 0.53125zm13.589523 0q-1.5625 0 -2.75 -0.53125q-1.1875 -0.53125 -1.890625 -1.46875q-0.703125 -0.953125 -0.84375 -2.25l2.171875 0q0.125 0.65625 0.53125 1.21875q0.40625 0.5625 1.09375 0.90625q0.703125 0.328125 1.71875 0.328125q0.890625 0 1.46875 -0.265625q0.578125 -0.265625 0.875 -0.71875q0.296875 -0.453125 0.296875 -0.984375q0 -0.78125 -0.375 -1.1875q-0.359375 -0.40625 -1.078125 -0.640625q-0.703125 -0.25 -1.71875 -0.421875q-0.828125 -0.15625 -1.640625 -0.40625q-0.8125 -0.25 -1.453125 -0.671875q-0.625 -0.421875 -1.0 -1.03125q-0.359375 -0.609375 -0.359375 -1.5q0 -1.078125 0.5625 -1.921875q0.578125 -0.859375 1.609375 -1.328125q1.046875 -0.484375 2.4375 -0.484375q2.046875 0 3.3125 0.984375q1.265625 0.984375 1.5 2.859375l-2.109375 0q-0.125 -0.96875 -0.828125 -1.5q-0.6875 -0.546875 -1.90625 -0.546875q-1.1875 0 -1.8125 0.484375q-0.609375 0.46875 -0.609375 1.265625q0 0.5 0.328125 0.890625q0.34375 0.390625 1.03125 0.671875q0.6875 0.28125 1.640625 0.453125q1.265625 0.234375 2.296875 0.609375q1.046875 0.375 1.6875 1.125q0.65625 0.75 0.65625 2.125q0 1.1875 -0.59375 2.078125q-0.59375 0.875 -1.6875 1.375q-1.09375 0.484375 -2.5625 0.484375zm12.360535 -0.296875q-1.140625 0 -1.984375 -0.34375q-0.828125 -0.359375 -1.265625 -1.203125q-0.4375 -0.859375 -0.4375 -2.296875l0 -7.125l-2.234375 0l0 -1.796875l2.234375 0l0.28125 -3.09375l1.84375 0l0 3.09375l3.703125 0l0 1.796875l-3.703125 0l0 7.125q0 1.1875 0.484375 1.609375q0.484375 0.40625 1.6875 0.40625l1.375 0l0 1.828125l-1.984375 0zm11.853424 0l0 -12.765625l2.140625 0l0 12.765625l-2.140625 0zm1.078125 -15.46875q-0.640625 0 -1.0625 -0.421875q-0.40625 -0.421875 -0.40625 -1.046875q0 -0.640625 0.40625 -1.03125q0.421875 -0.390625 1.0625 -0.390625q0.59375 0 1.03125 0.390625q0.4375 0.390625 0.4375 1.03125q0 0.625 -0.4375 1.046875q-0.4375 0.421875 -1.03125 0.421875zm4.797516 15.46875l0 -12.765625l1.9375 0l0.09375 2.234375l0 0q0.609375 -1.203125 1.734375 -1.859375q1.125 -0.671875 2.578125 -0.671875q1.484375 0 2.578125 0.59375q1.09375 0.59375 1.703125 1.796875q0.609375 1.203125 0.609375 3.046875l0 7.625l-2.140625 0l0 -7.390625q0 -1.9375 -0.84375 -2.890625q-0.84375 -0.96875 -2.390625 -0.96875q-1.0625 0 -1.90625 0.53125q-0.828125 0.515625 -1.328125 1.5q-0.484375 0.96875 -0.484375 2.40625l0 6.8125l-2.140625 0zm21.27565 0l0 -18.234375l2.140625 0l0 18.234375l-2.140625 0zm11.257553 0.296875q-1.78125 0 -3.171875 -0.828125q-1.390625 -0.84375 -2.1875 -2.34375q-0.78125 -1.5 -0.78125 -3.5q0 -2.03125 0.765625 -3.515625q0.78125 -1.5 2.1875 -2.328125q1.40625 -0.84375 3.234375 -0.84375q1.875 0 3.1875 0.84375q1.3125 0.828125 2.015625 2.1875q0.703125 1.34375 0.703125 2.96875q0 0.25 0 0.53125q0 0.28125 -0.03125 0.625l-10.453125 0l0 -1.640625l8.375 0q-0.078125 -1.75 -1.15625 -2.734375q-1.078125 -0.984375 -2.6875 -0.984375q-1.0625 0 -2.0 0.5q-0.9375 0.484375 -1.5 1.4375q-0.5625 0.9375 -0.5625 2.359375l0 0.71875q0 1.5625 0.5625 2.625q0.578125 1.0625 1.5 1.59375q0.9375 0.53125 2.0 0.53125q1.34375 0 2.203125 -0.59375q0.875 -0.59375 1.28125 -1.625l2.109375 0q-0.328125 1.15625 -1.09375 2.0625q-0.75 0.890625 -1.890625 1.421875q-1.125 0.53125 -2.609375 0.53125zm12.933273 0q-1.546875 0 -2.578125 -0.53125q-1.03125 -0.546875 -1.546875 -1.4375q-0.5 -0.90625 -0.5 -1.96875q0 -1.296875 0.671875 -2.1875q0.671875 -0.90625 1.890625 -1.375q1.234375 -0.46875 2.90625 -0.46875l3.359375 0q0 -1.1875 -0.375 -1.984375q-0.359375 -0.796875 -1.0625 -1.203125q-0.6875 -0.40625 -1.71875 -0.40625q-1.21875 0 -2.109375 0.609375q-0.890625 0.59375 -1.078125 1.796875l-2.1875 0q0.15625 -1.375 0.921875 -2.296875q0.78125 -0.921875 1.96875 -1.40625q1.1875 -0.5 2.484375 -0.5q1.765625 0 2.9375 0.640625q1.1875 0.640625 1.765625 1.796875q0.59375 1.15625 0.59375 2.71875l0 7.90625l-1.90625 0l-0.125 -2.25l0 0q-0.25 0.53125 -0.65625 1.0q-0.390625 0.46875 -0.90625 0.8125q-0.515625 0.34375 -1.203125 0.53125q-0.6875 0.203125 -1.546875 0.203125zm0.328125 -1.796875q0.890625 0 1.609375 -0.359375q0.734375 -0.375 1.234375 -1.015625q0.5 -0.640625 0.765625 -1.421875q0.265625 -0.796875 0.265625 -1.65625l0 -0.078125l-3.1875 0q-1.234375 0 -2.0 0.296875q-0.765625 0.28125 -1.09375 0.8125q-0.328125 0.515625 -0.328125 1.171875q0 0.6875 0.3125 1.203125q0.328125 0.5 0.9375 0.78125q0.625 0.265625 1.484375 0.265625zm9.294144 1.5l0 -12.765625l1.9375 0l0.140625 2.4375l0 0q0.4375 -0.859375 1.109375 -1.46875q0.671875 -0.609375 1.609375 -0.9375q0.953125 -0.328125 2.171875 -0.328125l0 2.21875l-0.78125 0q-0.8125 0 -1.546875 0.21875q-0.734375 0.21875 -1.3125 0.703125q-0.5625 0.46875 -0.875 1.296875q-0.3125 0.828125 -0.3125 2.046875l0 6.578125l-2.140625 0zm9.371414 0l0 -12.765625l1.9375 0l0.09375 2.234375l0 0q0.609375 -1.203125 1.734375 -1.859375q1.125 -0.671875 2.578125 -0.671875q1.484375 0 2.578125 0.59375q1.09375 0.59375 1.703125 1.796875q0.609375 1.203125 0.609375 3.046875l0 7.625l-2.140625 0l0 -7.390625q0 -1.9375 -0.84375 -2.890625q-0.84375 -0.96875 -2.390625 -0.96875q-1.0625 0 -1.90625 0.53125q-0.828125 0.515625 -1.328125 1.5q-0.484375 0.96875 -0.484375 2.40625l0 6.8125l-2.140625 0zm14.741486 0l0 -12.765625l2.140625 0l0 12.765625l-2.140625 0zm1.078125 -15.46875q-0.640625 0 -1.0625 -0.421875q-0.40625 -0.421875 -0.40625 -1.046875q0 -0.640625 0.40625 -1.03125q0.421875 -0.390625 1.0625 -0.390625q0.59375 0 1.03125 0.390625q0.4375 0.390625 0.4375 1.03125q0 0.625 -0.4375 1.046875q-0.4375 0.421875 -1.03125 0.421875zm4.797516 15.46875l0 -12.765625l1.9375 0l0.09375 2.234375l0 0q0.609375 -1.203125 1.734375 -1.859375q1.125 -0.671875 2.578125 -0.671875q1.484375 0 2.578125 0.59375q1.09375 0.59375 1.703125 1.796875q0.609375 1.203125 0.609375 3.046875l0 7.625l-2.140625 0l0 -7.390625q0 -1.9375 -0.84375 -2.890625q-0.84375 -0.96875 -2.390625 -0.96875q-1.0625 0 -1.90625 0.53125q-0.828125 0.515625 -1.328125 1.5q-0.484375 0.96875 -0.484375 2.40625l0 6.8125l-2.140625 0zm19.585205 5.875q-1.71875 0 -3.046875 -0.453125q-1.328125 -0.4375 -2.0625 -1.34375q-0.734375 -0.90625 -0.734375 -2.25q0 -0.59375 0.234375 -1.25q0.234375 -0.65625 0.828125 -1.28125q0.609375 -0.640625 1.6875 -1.140625l1.46875 0.859375q-1.34375 0.546875 -1.75 1.265625q-0.390625 0.734375 -0.390625 1.34375q0 0.828125 0.46875 1.390625q0.484375 0.5625 1.34375 0.828125q0.859375 0.28125 1.953125 0.28125q1.09375 0 1.875 -0.3125q0.78125 -0.3125 1.203125 -0.859375q0.4375 -0.546875 0.4375 -1.3125q0 -0.875 -0.65625 -1.484375q-0.65625 -0.59375 -2.5 -0.6875q-1.5 -0.109375 -2.515625 -0.28125q-1.015625 -0.171875 -1.671875 -0.40625q-0.65625 -0.25 -1.109375 -0.546875q-0.4375 -0.3125 -0.78125 -0.640625l0 -0.578125l2.453125 -2.4375l1.84375 0.65625l-2.53125 2.28125l0.328125 -0.890625q0.28125 0.203125 0.53125 0.390625q0.25 0.171875 0.6875 0.296875q0.4375 0.125 1.203125 0.234375q0.765625 0.09375 2.046875 0.203125q1.734375 0.125 2.78125 0.609375q1.0625 0.46875 1.53125 1.28125q0.46875 0.8125 0.46875 1.9375q0 1.078125 -0.59375 2.046875q-0.59375 0.984375 -1.84375 1.609375q-1.234375 0.640625 -3.1875 0.640625zm-0.03125 -9.875q-1.59375 0 -2.71875 -0.609375q-1.125 -0.609375 -1.71875 -1.625q-0.578125 -1.03125 -0.578125 -2.296875q0 -1.265625 0.59375 -2.28125q0.609375 -1.015625 1.71875 -1.625q1.109375 -0.625 2.703125 -0.625q1.609375 0 2.71875 0.625q1.109375 0.609375 1.6875 1.625q0.59375 1.015625 0.59375 2.28125q0 1.265625 -0.59375 2.296875q-0.578125 1.015625 -1.6875 1.625q-1.109375 0.609375 -2.71875 0.609375zm0 -1.75q1.375 0 2.15625 -0.703125q0.78125 -0.71875 0.78125 -2.078125q0 -1.34375 -0.78125 -2.046875q-0.78125 -0.71875 -2.15625 -0.71875q-1.328125 0 -2.15625 0.71875q-0.828125 0.703125 -0.828125 2.046875q0 1.359375 0.8125 2.078125q0.8125 0.703125 2.171875 0.703125zm2.078125 -5.21875l-0.625 -1.796875l5.21875 0l0 1.59375l-4.59375 0.203125zm17.932922 11.265625q-1.546875 0 -2.578125 -0.53125q-1.03125 -0.546875 -1.546875 -1.4375q-0.5 -0.90625 -0.5 -1.96875q0 -1.296875 0.671875 -2.1875q0.671875 -0.90625 1.890625 -1.375q1.234375 -0.46875 2.90625 -0.46875l3.359375 0q0 -1.1875 -0.375 -1.984375q-0.359375 -0.796875 -1.0625 -1.203125q-0.6875 -0.40625 -1.71875 -0.40625q-1.21875 0 -2.109375 0.609375q-0.890625 0.59375 -1.078125 1.796875l-2.1875 0q0.15625 -1.375 0.921875 -2.296875q0.78125 -0.921875 1.96875 -1.40625q1.1875 -0.5 2.484375 -0.5q1.765625 0 2.9375 0.640625q1.1875 0.640625 1.765625 1.796875q0.59375 1.15625 0.59375 2.71875l0 7.90625l-1.90625 0l-0.125 -2.25l0 0q-0.25 0.53125 -0.65625 1.0q-0.390625 0.46875 -0.90625 0.8125q-0.515625 0.34375 -1.203125 0.53125q-0.6875 0.203125 -1.546875 0.203125zm0.328125 -1.796875q0.890625 0 1.609375 -0.359375q0.734375 -0.375 1.234375 -1.015625q0.5 -0.640625 0.765625 -1.421875q0.265625 -0.796875 0.265625 -1.65625l0 -0.078125l-3.1875 0q-1.234375 0 -2.0 0.296875q-0.765625 0.28125 -1.09375 0.8125q-0.328125 0.515625 -0.328125 1.171875q0 0.6875 0.3125 1.203125q0.328125 0.5 0.9375 0.78125q0.625 0.265625 1.484375 0.265625zm15.981628 1.796875q-1.078125 0 -1.953125 -0.3125q-0.875 -0.3125 -1.53125 -0.84375q-0.65625 -0.53125 -1.09375 -1.25l0 0l-0.171875 2.109375l-1.9375 0l0 -18.234375l2.140625 0l0 7.578125q0.609375 -1.0 1.734375 -1.703125q1.140625 -0.703125 2.8125 -0.703125q1.875 0 3.25 0.875q1.390625 0.859375 2.15625 2.375q0.78125 1.5 0.78125 3.4375q0 1.921875 -0.78125 3.4375q-0.765625 1.515625 -2.15625 2.375q-1.390625 0.859375 -3.25 0.859375zm-0.25 -1.84375q1.265625 0 2.21875 -0.609375q0.96875 -0.609375 1.515625 -1.671875q0.546875 -1.078125 0.546875 -2.546875q0 -1.453125 -0.546875 -2.53125q-0.546875 -1.09375 -1.515625 -1.703125q-0.953125 -0.609375 -2.21875 -0.609375q-1.265625 0 -2.234375 0.609375q-0.953125 0.609375 -1.484375 1.703125q-0.53125 1.078125 -0.53125 2.53125q0 1.46875 0.53125 2.546875q0.53125 1.0625 1.484375 1.671875q0.96875 0.609375 2.234375 0.609375zm15.146393 1.84375q-1.765625 0 -3.1875 -0.8125q-1.421875 -0.828125 -2.234375 -2.328125q-0.8125 -1.515625 -0.8125 -3.515625q0 -2.046875 0.828125 -3.546875q0.828125 -1.515625 2.25 -2.328125q1.4375 -0.828125 3.203125 -0.828125q1.828125 0 3.234375 0.828125q1.40625 0.8125 2.21875 2.328125q0.828125 1.5 0.828125 3.53125q0 2.015625 -0.84375 3.53125q-0.828125 1.5 -2.25 2.328125q-1.40625 0.8125 -3.234375 0.8125zm0.03125 -1.8125q1.09375 0 2.015625 -0.546875q0.9375 -0.546875 1.515625 -1.625q0.59375 -1.09375 0.59375 -2.6875q0 -1.625 -0.578125 -2.703125q-0.5625 -1.078125 -1.484375 -1.625q-0.921875 -0.546875 -2.046875 -0.546875q-1.0625 0 -2.015625 0.546875q-0.9375 0.546875 -1.515625 1.625q-0.5625 1.078125 -0.5625 2.703125q0 1.59375 0.5625 2.6875q0.578125 1.078125 1.5 1.625q0.921875 0.546875 2.015625 0.546875zm13.925842 1.8125q-1.46875 0 -2.578125 -0.578125q-1.09375 -0.578125 -1.6875 -1.796875q-0.59375 -1.21875 -0.59375 -3.03125l0 -7.65625l2.125 0l0 7.421875q0 1.90625 0.828125 2.875q0.84375 0.953125 2.359375 0.953125q1.0625 0 1.921875 -0.515625q0.875 -0.53125 1.359375 -1.5q0.5 -0.984375 0.5 -2.421875l0 -6.8125l2.125 0l0 12.765625l-1.921875 0l-0.125 -2.234375l0 0q-0.59375 1.203125 -1.734375 1.875q-1.125 0.65625 -2.578125 0.65625zm14.888031 -0.296875q-1.140625 0 -1.984375 -0.34375q-0.828125 -0.359375 -1.265625 -1.203125q-0.4375 -0.859375 -0.4375 -2.296875l0 -7.125l-2.234375 0l0 -1.796875l2.234375 0l0.28125 -3.09375l1.84375 0l0 3.09375l3.703125 0l0 1.796875l-3.703125 0l0 7.125q0 1.1875 0.484375 1.609375q0.484375 0.40625 1.6875 0.40625l1.375 0l0 1.828125l-1.984375 0zm11.790955 0l0 -17.734375l5.21875 0q3.109375 0 5.125 1.078125q2.03125 1.078125 3.0 3.078125q0.984375 1.984375 0.984375 4.765625q0 2.734375 -0.984375 4.71875q-0.96875 1.96875 -3.0 3.03125q-2.015625 1.0625 -5.125 1.0625l-5.21875 0zm2.125 -1.765625l3.03125 0q2.59375 0 4.125 -0.84375q1.53125 -0.859375 2.1875 -2.4375q0.65625 -1.59375 0.65625 -3.765625q0 -2.234375 -0.65625 -3.828125q-0.65625 -1.59375 -2.1875 -2.453125q-1.53125 -0.859375 -4.125 -0.859375l-3.03125 0l0 14.1875zm15.300781 1.765625l0 -17.734375l2.125 0l0 16.03125l8.25 0l0 1.703125l-10.375 0z" fill-rule="nonzero"/><path fill="#005088" d="m41.87863 223.75436l0 -1.8125l10.03125 0l0 1.8125l-10.03125 0z" fill-rule="nonzero"/><path fill="#005088" d="m87.23741 230.62936q-2.46875 0 -4.34375 -1.140625q-1.875 -1.15625 -2.921875 -3.203125q-1.03125 -2.0625 -1.03125 -4.796875q0 -2.703125 1.046875 -4.78125q1.046875 -2.078125 2.984375 -3.234375q1.9375 -1.171875 4.578125 -1.171875q2.984375 0 4.984375 1.4375q2.0 1.421875 2.5625 3.984375l-2.453125 0q-0.359375 -1.59375 -1.6875 -2.53125q-1.3125 -0.9375 -3.40625 -0.9375q-1.953125 0 -3.40625 0.875q-1.453125 0.875 -2.25 2.5q-0.78125 1.609375 -0.78125 3.859375q0 2.265625 0.78125 3.90625q0.796875 1.625 2.203125 2.484375q1.40625 0.859375 3.21875 0.859375q2.84375 0 4.28125 -1.671875q1.453125 -1.671875 1.65625 -4.53125l-5.125 0l0 -1.671875l7.296875 0l0 9.46875l-1.953125 0l-0.171875 -2.90625l0 0q-0.640625 1.03125 -1.46875 1.75q-0.8125 0.71875 -1.9375 1.09375q-1.109375 0.359375 -2.65625 0.359375zm17.05812 0q-1.78125 0 -3.171875 -0.828125q-1.390625 -0.84375 -2.1875 -2.34375q-0.78125 -1.5 -0.78125 -3.5q0 -2.03125 0.765625 -3.515625q0.78125 -1.5 2.1875 -2.328125q1.40625 -0.84375 3.234375 -0.84375q1.875 0 3.1875 0.84375q1.3125 0.828125 2.015625 2.1875q0.703125 1.34375 0.703125 2.96875q0 0.25 0 0.53125q0 0.28125 -0.03125 0.625l-10.453125 0l0 -1.640625l8.375 0q-0.078125 -1.75 -1.15625 -2.734375q-1.078125 -0.984375 -2.6875 -0.984375q-1.0625 0 -2.0 0.5q-0.9375 0.484375 -1.5 1.4375q-0.5625 0.9375 -0.5625 2.359375l0 0.71875q0 1.5625 0.5625 2.625q0.578125 1.0625 1.5 1.59375q0.9375 0.53125 2.0 0.53125q1.34375 0 2.203125 -0.59375q0.875 -0.59375 1.28125 -1.625l2.109375 0q-0.328125 1.15625 -1.09375 2.0625q-0.75 0.890625 -1.890625 1.421875q-1.125 0.53125 -2.609375 0.53125zm13.361984 -0.296875q-1.140625 0 -1.984375 -0.34375q-0.828125 -0.359375 -1.265625 -1.203125q-0.4375 -0.859375 -0.4375 -2.296875l0 -7.125l-2.234375 0l0 -1.796875l2.234375 0l0.28125 -3.09375l1.84375 0l0 3.09375l3.703125 0l0 1.796875l-3.703125 0l0 7.125q0 1.1875 0.484375 1.609375q0.484375 0.40625 1.6875 0.40625l1.375 0l0 1.828125l-1.984375 0zm9.928635 0q-1.140625 0 -1.984375 -0.34375q-0.828125 -0.359375 -1.265625 -1.203125q-0.4375 -0.859375 -0.4375 -2.296875l0 -7.125l-2.234375 0l0 -1.796875l2.234375 0l0.28125 -3.09375l1.84375 0l0 3.09375l3.703125 0l0 1.796875l-3.703125 0l0 7.125q0 1.1875 0.484375 1.609375q0.484375 0.40625 1.6875 0.40625l1.375 0l0 1.828125l-1.984375 0zm5.1161346 0l0 -12.765625l2.140625 0l0 12.765625l-2.140625 0zm1.078125 -15.46875q-0.640625 0 -1.0625 -0.421875q-0.40625 -0.421875 -0.40625 -1.046875q0 -0.640625 0.40625 -1.03125q0.421875 -0.390625 1.0625 -0.390625q0.59375 0 1.03125 0.390625q0.4375 0.390625 0.4375 1.03125q0 0.625 -0.4375 1.046875q-0.4375 0.421875 -1.03125 0.421875zm4.797516 15.46875l0 -12.765625l1.9375 0l0.09375 2.234375l0 0q0.609375 -1.203125 1.734375 -1.859375q1.125 -0.671875 2.578125 -0.671875q1.484375 0 2.578125 0.59375q1.09375 0.59375 1.703125 1.796875q0.609375 1.203125 0.609375 3.046875l0 7.625l-2.140625 0l0 -7.390625q0 -1.9375 -0.84375 -2.890625q-0.84375 -0.96875 -2.390625 -0.96875q-1.0625 0 -1.90625 0.53125q-0.828125 0.515625 -1.328125 1.5q-0.484375 0.96875 -0.484375 2.40625l0 6.8125l-2.140625 0zm19.585236 5.875q-1.71875 0 -3.046875 -0.453125q-1.328125 -0.4375 -2.0625 -1.34375q-0.734375 -0.90625 -0.734375 -2.25q0 -0.59375 0.234375 -1.25q0.234375 -0.65625 0.828125 -1.28125q0.609375 -0.640625 1.6875 -1.140625l1.46875 0.859375q-1.34375 0.546875 -1.75 1.265625q-0.390625 0.734375 -0.390625 1.34375q0 0.828125 0.46875 1.390625q0.484375 0.5625 1.34375 0.828125q0.859375 0.28125 1.953125 0.28125q1.09375 0 1.875 -0.3125q0.78125 -0.3125 1.203125 -0.859375q0.4375 -0.546875 0.4375 -1.3125q0 -0.875 -0.65625 -1.484375q-0.65625 -0.59375 -2.5 -0.6875q-1.5 -0.109375 -2.515625 -0.28125q-1.015625 -0.171875 -1.671875 -0.40625q-0.65625 -0.25 -1.109375 -0.546875q-0.4375 -0.3125 -0.78125 -0.640625l0 -0.578125l2.453125 -2.4375l1.84375 0.65625l-2.53125 2.28125l0.328125 -0.890625q0.28125 0.203125 0.53125 0.390625q0.25 0.171875 0.6875 0.296875q0.4375 0.125 1.203125 0.234375q0.765625 0.09375 2.046875 0.203125q1.734375 0.125 2.78125 0.609375q1.0625 0.46875 1.53125 1.28125q0.46875 0.8125 0.46875 1.9375q0 1.078125 -0.59375 2.046875q-0.59375 0.984375 -1.84375 1.609375q-1.234375 0.640625 -3.1875 0.640625zm-0.03125 -9.875q-1.59375 0 -2.71875 -0.609375q-1.125 -0.609375 -1.71875 -1.625q-0.578125 -1.03125 -0.578125 -2.296875q0 -1.265625 0.59375 -2.28125q0.609375 -1.015625 1.71875 -1.625q1.109375 -0.625 2.703125 -0.625q1.609375 0 2.71875 0.625q1.109375 0.609375 1.6875 1.625q0.59375 1.015625 0.59375 2.28125q0 1.265625 -0.59375 2.296875q-0.578125 1.015625 -1.6875 1.625q-1.109375 0.609375 -2.71875 0.609375zm0 -1.75q1.375 0 2.15625 -0.703125q0.78125 -0.71875 0.78125 -2.078125q0 -1.34375 -0.78125 -2.046875q-0.78125 -0.71875 -2.15625 -0.71875q-1.328125 0 -2.15625 0.71875q-0.828125 0.703125 -0.828125 2.046875q0 1.359375 0.8125 2.078125q0.8125 0.703125 2.171875 0.703125zm2.078125 -5.21875l-0.625 -1.796875l5.21875 0l0 1.59375l-4.59375 0.203125zm13.776657 10.96875l0 -18.234375l2.140625 0l0 7.625l0 0q0.625 -1.140625 1.78125 -1.796875q1.15625 -0.65625 2.515625 -0.65625q1.46875 0 2.5625 0.59375q1.09375 0.59375 1.671875 1.8125q0.578125 1.203125 0.578125 3.0625l0 7.59375l-2.09375 0l0 -7.375q0 -1.921875 -0.8125 -2.890625q-0.8125 -0.984375 -2.359375 -0.984375q-1.09375 0 -1.96875 0.53125q-0.875 0.53125 -1.375 1.53125q-0.5 0.984375 -0.5 2.421875l0 6.765625l-2.140625 0zm18.71994 0.296875q-1.546875 0 -2.578125 -0.53125q-1.03125 -0.546875 -1.546875 -1.4375q-0.5 -0.90625 -0.5 -1.96875q0 -1.296875 0.671875 -2.1875q0.671875 -0.90625 1.890625 -1.375q1.234375 -0.46875 2.90625 -0.46875l3.359375 0q0 -1.1875 -0.375 -1.984375q-0.359375 -0.796875 -1.0625 -1.203125q-0.6875 -0.40625 -1.71875 -0.40625q-1.21875 0 -2.109375 0.609375q-0.890625 0.59375 -1.078125 1.796875l-2.1875 0q0.15625 -1.375 0.921875 -2.296875q0.78125 -0.921875 1.96875 -1.40625q1.1875 -0.5 2.484375 -0.5q1.765625 0 2.9375 0.640625q1.1875 0.640625 1.765625 1.796875q0.59375 1.15625 0.59375 2.71875l0 7.90625l-1.90625 0l-0.125 -2.25l0 0q-0.25 0.53125 -0.65625 1.0q-0.390625 0.46875 -0.90625 0.8125q-0.515625 0.34375 -1.203125 0.53125q-0.6875 0.203125 -1.546875 0.203125zm0.328125 -1.796875q0.890625 0 1.609375 -0.359375q0.734375 -0.375 1.234375 -1.015625q0.5 -0.640625 0.765625 -1.421875q0.265625 -0.796875 0.265625 -1.65625l0 -0.078125l-3.1875 0q-1.234375 0 -2.0 0.296875q-0.765625 0.28125 -1.09375 0.8125q-0.328125 0.515625 -0.328125 1.171875q0 0.6875 0.3125 1.203125q0.328125 0.5 0.9375 0.78125q0.625 0.265625 1.484375 0.265625zm9.294144 1.5l0 -12.765625l1.9375 0l0.09375 2.234375l0 0q0.609375 -1.203125 1.734375 -1.859375q1.125 -0.671875 2.578125 -0.671875q1.484375 0 2.578125 0.59375q1.09375 0.59375 1.703125 1.796875q0.609375 1.203125 0.609375 3.046875l0 7.625l-2.140625 0l0 -7.390625q0 -1.9375 -0.84375 -2.890625q-0.84375 -0.96875 -2.390625 -0.96875q-1.0625 0 -1.90625 0.53125q-0.828125 0.515625 -1.328125 1.5q-0.484375 0.96875 -0.484375 2.40625l0 6.8125l-2.140625 0zm20.19461 0.296875q-1.84375 0 -3.25 -0.859375q-1.40625 -0.875 -2.171875 -2.390625q-0.765625 -1.53125 -0.765625 -3.453125q0 -1.921875 0.765625 -3.421875q0.765625 -1.515625 2.171875 -2.375q1.40625 -0.859375 3.28125 -0.859375q1.53125 0 2.703125 0.640625q1.1875 0.625 1.84375 1.765625l0 -7.578125l2.140625 0l0 18.234375l-1.9375 0l-0.203125 -2.109375l0 0q-0.40625 0.640625 -1.046875 1.1875q-0.625 0.546875 -1.5 0.890625q-0.859375 0.328125 -2.03125 0.328125zm0.234375 -1.84375q1.265625 0 2.21875 -0.609375q0.96875 -0.609375 1.5 -1.671875q0.546875 -1.078125 0.546875 -2.546875q0 -1.453125 -0.546875 -2.53125q-0.53125 -1.09375 -1.5 -1.703125q-0.953125 -0.609375 -2.21875 -0.609375q-1.21875 0 -2.203125 0.609375q-0.96875 0.609375 -1.5 1.703125q-0.53125 1.078125 -0.53125 2.53125q0 1.46875 0.53125 2.546875q0.53125 1.0625 1.5 1.671875q0.984375 0.609375 2.203125 0.609375zm14.802628 1.84375q-1.5625 0 -2.75 -0.53125q-1.1875 -0.53125 -1.890625 -1.46875q-0.703125 -0.953125 -0.84375 -2.25l2.171875 0q0.125 0.65625 0.53125 1.21875q0.40625 0.5625 1.09375 0.90625q0.703125 0.328125 1.71875 0.328125q0.890625 0 1.46875 -0.265625q0.578125 -0.265625 0.875 -0.71875q0.296875 -0.453125 0.296875 -0.984375q0 -0.78125 -0.375 -1.1875q-0.359375 -0.40625 -1.078125 -0.640625q-0.703125 -0.25 -1.71875 -0.421875q-0.828125 -0.15625 -1.640625 -0.40625q-0.8125 -0.25 -1.453125 -0.671875q-0.625 -0.421875 -1.0 -1.03125q-0.359375 -0.609375 -0.359375 -1.5q0 -1.078125 0.5625 -1.921875q0.578125 -0.859375 1.609375 -1.328125q1.046875 -0.484375 2.4375 -0.484375q2.046875 0 3.3125 0.984375q1.265625 0.984375 1.5 2.859375l-2.109375 0q-0.125 -0.96875 -0.828125 -1.5q-0.6875 -0.546875 -1.90625 -0.546875q-1.1875 0 -1.8125 0.484375q-0.609375 0.46875 -0.609375 1.265625q0 0.5 0.328125 0.890625q0.34375 0.390625 1.03125 0.671875q0.6875 0.28125 1.640625 0.453125q1.265625 0.234375 2.296875 0.609375q1.046875 0.375 1.6875 1.125q0.65625 0.75 0.65625 2.125q0 1.1875 -0.59375 2.078125q-0.59375 0.875 -1.6875 1.375q-1.09375 0.484375 -2.5625 0.484375zm20.342651 0q-1.765625 0 -3.1875 -0.8125q-1.421875 -0.828125 -2.234375 -2.328125q-0.8125 -1.515625 -0.8125 -3.515625q0 -2.046875 0.828125 -3.546875q0.828125 -1.515625 2.25 -2.328125q1.4375 -0.828125 3.203125 -0.828125q1.828125 0 3.234375 0.828125q1.40625 0.8125 2.21875 2.328125q0.828125 1.5 0.828125 3.53125q0 2.015625 -0.84375 3.53125q-0.828125 1.5 -2.25 2.328125q-1.40625 0.8125 -3.234375 0.8125zm0.03125 -1.8125q1.09375 0 2.015625 -0.546875q0.9375 -0.546875 1.515625 -1.625q0.59375 -1.09375 0.59375 -2.6875q0 -1.625 -0.578125 -2.703125q-0.5625 -1.078125 -1.484375 -1.625q-0.921875 -0.546875 -2.046875 -0.546875q-1.0625 0 -2.015625 0.546875q-0.9375 0.546875 -1.515625 1.625q-0.5625 1.078125 -0.5625 2.703125q0 1.59375 0.5625 2.6875q0.578125 1.078125 1.5 1.625q0.921875 0.546875 2.015625 0.546875zm9.285217 1.515625l0 -12.765625l1.9375 0l0.09375 2.234375l0 0q0.609375 -1.203125 1.734375 -1.859375q1.125 -0.671875 2.578125 -0.671875q1.484375 0 2.578125 0.59375q1.09375 0.59375 1.703125 1.796875q0.609375 1.203125 0.609375 3.046875l0 7.625l-2.140625 0l0 -7.390625q0 -1.9375 -0.84375 -2.890625q-0.84375 -0.96875 -2.390625 -0.96875q-1.0625 0 -1.90625 0.53125q-0.828125 0.515625 -1.328125 1.5q-0.484375 0.96875 -0.484375 2.40625l0 6.8125l-2.140625 0zm26.88501 0.296875q-1.78125 0 -3.171875 -0.828125q-1.390625 -0.84375 -2.1875 -2.34375q-0.78125 -1.5 -0.78125 -3.5q0 -2.03125 0.765625 -3.515625q0.78125 -1.5 2.1875 -2.328125q1.40625 -0.84375 3.234375 -0.84375q1.875 0 3.1875 0.84375q1.3125 0.828125 2.015625 2.1875q0.703125 1.34375 0.703125 2.96875q0 0.25 0 0.53125q0 0.28125 -0.03125 0.625l-10.453125 0l0 -1.640625l8.375 0q-0.078125 -1.75 -1.15625 -2.734375q-1.078125 -0.984375 -2.6875 -0.984375q-1.0625 0 -2.0 0.5q-0.9375 0.484375 -1.5 1.4375q-0.5625 0.9375 -0.5625 2.359375l0 0.71875q0 1.5625 0.5625 2.625q0.578125 1.0625 1.5 1.59375q0.9375 0.53125 2.0 0.53125q1.34375 0 2.203125 -0.59375q0.875 -0.59375 1.28125 -1.625l2.109375 0q-0.328125 1.15625 -1.09375 2.0625q-0.75 0.890625 -1.890625 1.421875q-1.125 0.53125 -2.609375 0.53125zm6.928711 -0.296875l4.34375 -6.375l-4.34375 -6.390625l2.34375 0l3.4375 5.21875l0 0l3.5 -5.21875l2.28125 0l-4.34375 6.390625l4.34375 6.375l-2.28125 0l-3.5 -5.25l0 0l-3.4375 5.25l-2.34375 0zm13.82843 5.578125l0 -18.34375l1.9375 0l0.171875 2.078125l0 0q0.40625 -0.609375 1.03125 -1.15625q0.640625 -0.546875 1.515625 -0.875q0.890625 -0.34375 2.0625 -0.34375q1.84375 0 3.21875 0.890625q1.390625 0.875 2.15625 2.390625q0.78125 1.5 0.78125 3.421875q0 1.921875 -0.78125 3.4375q-0.765625 1.5 -2.15625 2.359375q-1.390625 0.859375 -3.25 0.859375q-1.53125 0 -2.734375 -0.625q-1.1875 -0.640625 -1.8125 -1.78125l0 7.6875l-2.140625 0zm6.4375 -7.125q1.25 0 2.21875 -0.609375q0.96875 -0.609375 1.515625 -1.671875q0.546875 -1.078125 0.546875 -2.546875q0 -1.453125 -0.546875 -2.53125q-0.546875 -1.09375 -1.515625 -1.703125q-0.96875 -0.609375 -2.21875 -0.609375q-1.265625 0 -2.234375 0.609375q-0.953125 0.609375 -1.484375 1.703125q-0.53125 1.078125 -0.53125 2.53125q0 1.46875 0.53125 2.546875q0.53125 1.0625 1.484375 1.671875q0.96875 0.609375 2.234375 0.609375zm15.052612 1.84375q-1.78125 0 -3.171875 -0.828125q-1.390625 -0.84375 -2.1875 -2.34375q-0.78125 -1.5 -0.78125 -3.5q0 -2.03125 0.765625 -3.515625q0.78125 -1.5 2.1875 -2.328125q1.40625 -0.84375 3.234375 -0.84375q1.875 0 3.1875 0.84375q1.3125 0.828125 2.015625 2.1875q0.703125 1.34375 0.703125 2.96875q0 0.25 0 0.53125q0 0.28125 -0.03125 0.625l-10.453125 0l0 -1.640625l8.375 0q-0.078125 -1.75 -1.15625 -2.734375q-1.078125 -0.984375 -2.6875 -0.984375q-1.0625 0 -2.0 0.5q-0.9375 0.484375 -1.5 1.4375q-0.5625 0.9375 -0.5625 2.359375l0 0.71875q0 1.5625 0.5625 2.625q0.578125 1.0625 1.5 1.59375q0.9375 0.53125 2.0 0.53125q1.34375 0 2.203125 -0.59375q0.875 -0.59375 1.28125 -1.625l2.109375 0q-0.328125 1.15625 -1.09375 2.0625q-0.75 0.890625 -1.890625 1.421875q-1.125 0.53125 -2.609375 0.53125zm8.777039 -0.296875l0 -12.765625l1.9375 0l0.140625 2.4375l0 0q0.4375 -0.859375 1.109375 -1.46875q0.671875 -0.609375 1.609375 -0.9375q0.953125 -0.328125 2.171875 -0.328125l0 2.21875l-0.78125 0q-0.8125 0 -1.546875 0.21875q-0.734375 0.21875 -1.3125 0.703125q-0.5625 0.46875 -0.875 1.296875q-0.3125 0.828125 -0.3125 2.046875l0 6.578125l-2.140625 0zm9.574524 0l0 -12.765625l2.140625 0l0 12.765625l-2.140625 0zm1.078125 -15.46875q-0.640625 0 -1.0625 -0.421875q-0.40625 -0.421875 -0.40625 -1.046875q0 -0.640625 0.40625 -1.03125q0.421875 -0.390625 1.0625 -0.390625q0.59375 0 1.03125 0.390625q0.4375 0.390625 0.4375 1.03125q0 0.625 -0.4375 1.046875q-0.4375 0.421875 -1.03125 0.421875zm10.406891 15.765625q-1.78125 0 -3.171875 -0.828125q-1.390625 -0.84375 -2.1875 -2.34375q-0.78125 -1.5 -0.78125 -3.5q0 -2.03125 0.765625 -3.515625q0.78125 -1.5 2.1875 -2.328125q1.40625 -0.84375 3.234375 -0.84375q1.875 0 3.1875 0.84375q1.3125 0.828125 2.015625 2.1875q0.703125 1.34375 0.703125 2.96875q0 0.25 0 0.53125q0 0.28125 -0.03125 0.625l-10.453125 0l0 -1.640625l8.375 0q-0.078125 -1.75 -1.15625 -2.734375q-1.078125 -0.984375 -2.6875 -0.984375q-1.0625 0 -2.0 0.5q-0.9375 0.484375 -1.5 1.4375q-0.5625 0.9375 -0.5625 2.359375l0 0.71875q0 1.5625 0.5625 2.625q0.578125 1.0625 1.5 1.59375q0.9375 0.53125 2.0 0.53125q1.34375 0 2.203125 -0.59375q0.875 -0.59375 1.28125 -1.625l2.109375 0q-0.328125 1.15625 -1.09375 2.0625q-0.75 0.890625 -1.890625 1.421875q-1.125 0.53125 -2.609375 0.53125zm8.777008 -0.296875l0 -12.765625l1.9375 0l0.09375 2.234375l0 0q0.609375 -1.203125 1.734375 -1.859375q1.125 -0.671875 2.578125 -0.671875q1.484375 0 2.578125 0.59375q1.09375 0.59375 1.703125 1.796875q0.609375 1.203125 0.609375 3.046875l0 7.625l-2.140625 0l0 -7.390625q0 -1.9375 -0.84375 -2.890625q-0.84375 -0.96875 -2.390625 -0.96875q-1.0625 0 -1.90625 0.53125q-0.828125 0.515625 -1.328125 1.5q-0.484375 0.96875 -0.484375 2.40625l0 6.8125l-2.140625 0zm20.28836 0.296875q-1.796875 0 -3.234375 -0.828125q-1.421875 -0.84375 -2.234375 -2.34375q-0.8125 -1.5 -0.8125 -3.484375q0 -2.03125 0.8125 -3.515625q0.8125 -1.5 2.234375 -2.34375q1.4375 -0.84375 3.234375 -0.84375q2.28125 0 3.796875 1.171875q1.53125 1.171875 1.9375 3.15625l-2.1875 0q-0.25 -1.1875 -1.234375 -1.84375q-0.984375 -0.671875 -2.328125 -0.671875q-1.09375 0 -2.015625 0.546875q-0.921875 0.546875 -1.5 1.640625q-0.5625 1.078125 -0.5625 2.6875q0 1.1875 0.328125 2.109375q0.328125 0.921875 0.875 1.53125q0.5625 0.609375 1.3125 0.921875q0.75 0.3125 1.5625 0.3125q0.90625 0 1.640625 -0.28125q0.734375 -0.296875 1.234375 -0.875q0.515625 -0.578125 0.6875 -1.375l2.1875 0q-0.40625 1.921875 -1.9375 3.125q-1.53125 1.203125 -3.796875 1.203125zm14.347076 0q-1.78125 0 -3.171875 -0.828125q-1.390625 -0.84375 -2.1875 -2.34375q-0.78125 -1.5 -0.78125 -3.5q0 -2.03125 0.765625 -3.515625q0.78125 -1.5 2.1875 -2.328125q1.40625 -0.84375 3.234375 -0.84375q1.875 0 3.1875 0.84375q1.3125 0.828125 2.015625 2.1875q0.703125 1.34375 0.703125 2.96875q0 0.25 0 0.53125q0 0.28125 -0.03125 0.625l-10.453125 0l0 -1.640625l8.375 0q-0.078125 -1.75 -1.15625 -2.734375q-1.078125 -0.984375 -2.6875 -0.984375q-1.0625 0 -2.0 0.5q-0.9375 0.484375 -1.5 1.4375q-0.5625 0.9375 -0.5625 2.359375l0 0.71875q0 1.5625 0.5625 2.625q0.578125 1.0625 1.5 1.59375q0.9375 0.53125 2.0 0.53125q1.34375 0 2.203125 -0.59375q0.875 -0.59375 1.28125 -1.625l2.109375 0q-0.328125 1.15625 -1.09375 2.0625q-0.75 0.890625 -1.890625 1.421875q-1.125 0.53125 -2.609375 0.53125z" fill-rule="nonzero"/><path fill="#005088" d="m41.87863 272.0477l0 -1.8125l10.03125 0l0 1.8125l-10.03125 0z" fill-rule="nonzero"/><path fill="#005088" d="m78.48741 278.62582l6.53125 -17.734375l2.25 0l6.515625 17.734375l-2.265625 0l-5.390625 -15.0625l0 0l-5.421875 15.0625l-2.21875 0zm2.984375 -4.5625l0.609375 -1.71875l8.03125 0l0.609375 1.71875l-9.25 0zm19.89952 4.859375q-1.796875 0 -3.234375 -0.828125q-1.421875 -0.84375 -2.234375 -2.34375q-0.8125 -1.5 -0.8125 -3.484375q0 -2.03125 0.8125 -3.515625q0.8125 -1.5 2.234375 -2.34375q1.4375 -0.84375 3.234375 -0.84375q2.28125 0 3.796875 1.171875q1.53125 1.171875 1.9375 3.15625l-2.1875 0q-0.25 -1.1875 -1.234375 -1.84375q-0.984375 -0.671875 -2.328125 -0.671875q-1.09375 0 -2.015625 0.546875q-0.921875 0.546875 -1.5 1.640625q-0.5625 1.078125 -0.5625 2.6875q0 1.1875 0.328125 2.109375q0.328125 0.921875 0.875 1.53125q0.5625 0.609375 1.3125 0.921875q0.75 0.3125 1.5625 0.3125q0.90625 0 1.640625 -0.28125q0.734375 -0.296875 1.234375 -0.875q0.515625 -0.578125 0.6875 -1.375l2.1875 0q-0.40625 1.921875 -1.9375 3.125q-1.53125 1.203125 -3.796875 1.203125zm14.487701 0q-1.796875 0 -3.234375 -0.828125q-1.421875 -0.84375 -2.234375 -2.34375q-0.8125 -1.5 -0.8125 -3.484375q0 -2.03125 0.8125 -3.515625q0.8125 -1.5 2.234375 -2.34375q1.4375 -0.84375 3.234375 -0.84375q2.28125 0 3.796875 1.171875q1.53125 1.171875 1.9375 3.15625l-2.1875 0q-0.25 -1.1875 -1.234375 -1.84375q-0.984375 -0.671875 -2.328125 -0.671875q-1.09375 0 -2.015625 0.546875q-0.921875 0.546875 -1.5 1.640625q-0.5625 1.078125 -0.5625 2.6875q0 1.1875 0.328125 2.109375q0.328125 0.921875 0.875 1.53125q0.5625 0.609375 1.3125 0.921875q0.75 0.3125 1.5625 0.3125q0.90625 0 1.640625 -0.28125q0.734375 -0.296875 1.234375 -0.875q0.515625 -0.578125 0.6875 -1.375l2.1875 0q-0.40625 1.921875 -1.9375 3.125q-1.53125 1.203125 -3.796875 1.203125zm13.378326 0q-1.46875 0 -2.578125 -0.578125q-1.09375 -0.578125 -1.6875 -1.796875q-0.59375 -1.21875 -0.59375 -3.03125l0 -7.65625l2.125 0l0 7.421875q0 1.90625 0.828125 2.875q0.84375 0.953125 2.359375 0.953125q1.0625 0 1.921875 -0.515625q0.875 -0.53125 1.359375 -1.5q0.5 -0.984375 0.5 -2.421875l0 -6.8125l2.125 0l0 12.765625l-1.921875 0l-0.125 -2.234375l0 0q-0.59375 1.203125 -1.734375 1.875q-1.125 0.65625 -2.578125 0.65625zm9.872406 -0.296875l0 -12.765625l1.9375 0l0.140625 2.4375l0 0q0.4375 -0.859375 1.109375 -1.46875q0.671875 -0.609375 1.609375 -0.9375q0.953125 -0.328125 2.171875 -0.328125l0 2.21875l-0.78125 0q-0.8125 0 -1.546875 0.21875q-0.734375 0.21875 -1.3125 0.703125q-0.5625 0.46875 -0.875 1.296875q-0.3125 0.828125 -0.3125 2.046875l0 6.578125l-2.140625 0zm13.527664 0.296875q-1.546875 0 -2.578125 -0.53125q-1.03125 -0.546875 -1.546875 -1.4375q-0.5 -0.90625 -0.5 -1.96875q0 -1.296875 0.671875 -2.1875q0.671875 -0.90625 1.890625 -1.375q1.234375 -0.46875 2.90625 -0.46875l3.359375 0q0 -1.1875 -0.375 -1.984375q-0.359375 -0.796875 -1.0625 -1.203125q-0.6875 -0.40625 -1.71875 -0.40625q-1.21875 0 -2.109375 0.609375q-0.890625 0.59375 -1.078125 1.796875l-2.1875 0q0.15625 -1.375 0.921875 -2.296875q0.78125 -0.921875 1.96875 -1.40625q1.1875 -0.5 2.484375 -0.5q1.765625 0 2.9375 0.640625q1.1875 0.640625 1.765625 1.796875q0.59375 1.15625 0.59375 2.71875l0 7.90625l-1.90625 0l-0.125 -2.25l0 0q-0.25 0.53125 -0.65625 1.0q-0.390625 0.46875 -0.90625 0.8125q-0.515625 0.34375 -1.203125 0.53125q-0.6875 0.203125 -1.546875 0.203125zm0.328125 -1.796875q0.890625 0 1.609375 -0.359375q0.734375 -0.375 1.234375 -1.015625q0.5 -0.640625 0.765625 -1.421875q0.265625 -0.796875 0.265625 -1.65625l0 -0.078125l-3.1875 0q-1.234375 0 -2.0 0.296875q-0.765625 0.28125 -1.09375 0.8125q-0.328125 0.515625 -0.328125 1.171875q0 0.6875 0.3125 1.203125q0.328125 0.5 0.9375 0.78125q0.625 0.265625 1.484375 0.265625zm13.955109 1.5q-1.140625 0 -1.984375 -0.34375q-0.828125 -0.359375 -1.265625 -1.203125q-0.4375 -0.859375 -0.4375 -2.296875l0 -7.125l-2.234375 0l0 -1.796875l2.234375 0l0.28125 -3.09375l1.84375 0l0 3.09375l3.703125 0l0 1.796875l-3.703125 0l0 7.125q0 1.1875 0.484375 1.609375q0.484375 0.40625 1.6875 0.40625l1.375 0l0 1.828125l-1.984375 0zm10.167725 0.296875q-1.78125 0 -3.171875 -0.828125q-1.390625 -0.84375 -2.1875 -2.34375q-0.78125 -1.5 -0.78125 -3.5q0 -2.03125 0.765625 -3.515625q0.78125 -1.5 2.1875 -2.328125q1.40625 -0.84375 3.234375 -0.84375q1.875 0 3.1875 0.84375q1.3125 0.828125 2.015625 2.1875q0.703125 1.34375 0.703125 2.96875q0 0.25 0 0.53125q0 0.28125 -0.03125 0.625l-10.453125 0l0 -1.640625l8.375 0q-0.078125 -1.75 -1.15625 -2.734375q-1.078125 -0.984375 -2.6875 -0.984375q-1.0625 0 -2.0 0.5q-0.9375 0.484375 -1.5 1.4375q-0.5625 0.9375 -0.5625 2.359375l0 0.71875q0 1.5625 0.5625 2.625q0.578125 1.0625 1.5 1.59375q0.9375 0.53125 2.0 0.53125q1.34375 0 2.203125 -0.59375q0.875 -0.59375 1.28125 -1.625l2.109375 0q-0.328125 1.15625 -1.09375 2.0625q-0.75 0.890625 -1.890625 1.421875q-1.125 0.53125 -2.609375 0.53125zm8.777023 -0.296875l0 -18.234375l2.140625 0l0 18.234375l-2.140625 0zm7.054428 5.578125l3.109375 -7.0l-0.734375 0l-5.015625 -11.34375l2.3125 0l4.140625 9.75l0 0l4.390625 -9.75l2.203125 0l-8.1875 18.34375l-2.21875 0zm25.069748 -5.28125q-1.84375 0 -3.25 -0.859375q-1.40625 -0.875 -2.171875 -2.390625q-0.765625 -1.53125 -0.765625 -3.453125q0 -1.921875 0.765625 -3.421875q0.765625 -1.515625 2.171875 -2.375q1.40625 -0.859375 3.28125 -0.859375q1.53125 0 2.703125 0.640625q1.1875 0.625 1.84375 1.765625l0 -7.578125l2.140625 0l0 18.234375l-1.9375 0l-0.203125 -2.109375l0 0q-0.40625 0.640625 -1.046875 1.1875q-0.625 0.546875 -1.5 0.890625q-0.859375 0.328125 -2.03125 0.328125zm0.234375 -1.84375q1.265625 0 2.21875 -0.609375q0.96875 -0.609375 1.5 -1.671875q0.546875 -1.078125 0.546875 -2.546875q0 -1.453125 -0.546875 -2.53125q-0.53125 -1.09375 -1.5 -1.703125q-0.953125 -0.609375 -2.21875 -0.609375q-1.21875 0 -2.203125 0.609375q-0.96875 0.609375 -1.5 1.703125q-0.53125 1.078125 -0.53125 2.53125q0 1.46875 0.53125 2.546875q0.53125 1.0625 1.5 1.671875q0.984375 0.609375 2.203125 0.609375zm15.599503 1.84375q-1.78125 0 -3.171875 -0.828125q-1.390625 -0.84375 -2.1875 -2.34375q-0.78125 -1.5 -0.78125 -3.5q0 -2.03125 0.765625 -3.515625q0.78125 -1.5 2.1875 -2.328125q1.40625 -0.84375 3.234375 -0.84375q1.875 0 3.1875 0.84375q1.3125 0.828125 2.015625 2.1875q0.703125 1.34375 0.703125 2.96875q0 0.25 0 0.53125q0 0.28125 -0.03125 0.625l-10.453125 0l0 -1.640625l8.375 0q-0.078125 -1.75 -1.15625 -2.734375q-1.078125 -0.984375 -2.6875 -0.984375q-1.0625 0 -2.0 0.5q-0.9375 0.484375 -1.5 1.4375q-0.5625 0.9375 -0.5625 2.359375l0 0.71875q0 1.5625 0.5625 2.625q0.578125 1.0625 1.5 1.59375q0.9375 0.53125 2.0 0.53125q1.34375 0 2.203125 -0.59375q0.875 -0.59375 1.28125 -1.625l2.109375 0q-0.328125 1.15625 -1.09375 2.0625q-0.75 0.890625 -1.890625 1.421875q-1.125 0.53125 -2.609375 0.53125zm13.361984 -0.296875q-1.140625 0 -1.984375 -0.34375q-0.828125 -0.359375 -1.265625 -1.203125q-0.4375 -0.859375 -0.4375 -2.296875l0 -7.125l-2.234375 0l0 -1.796875l2.234375 0l0.28125 -3.09375l1.84375 0l0 3.09375l3.703125 0l0 1.796875l-3.703125 0l0 7.125q0 1.1875 0.484375 1.609375q0.484375 0.40625 1.6875 0.40625l1.375 0l0 1.828125l-1.984375 0zm10.167725 0.296875q-1.78125 0 -3.171875 -0.828125q-1.390625 -0.84375 -2.1875 -2.34375q-0.78125 -1.5 -0.78125 -3.5q0 -2.03125 0.765625 -3.515625q0.78125 -1.5 2.1875 -2.328125q1.40625 -0.84375 3.234375 -0.84375q1.875 0 3.1875 0.84375q1.3125 0.828125 2.015625 2.1875q0.703125 1.34375 0.703125 2.96875q0 0.25 0 0.53125q0 0.28125 -0.03125 0.625l-10.453125 0l0 -1.640625l8.375 0q-0.078125 -1.75 -1.15625 -2.734375q-1.078125 -0.984375 -2.6875 -0.984375q-1.0625 0 -2.0 0.5q-0.9375 0.484375 -1.5 1.4375q-0.5625 0.9375 -0.5625 2.359375l0 0.71875q0 1.5625 0.5625 2.625q0.578125 1.0625 1.5 1.59375q0.9375 0.53125 2.0 0.53125q1.34375 0 2.203125 -0.59375q0.875 -0.59375 1.28125 -1.625l2.109375 0q-0.328125 1.15625 -1.09375 2.0625q-0.75 0.890625 -1.890625 1.421875q-1.125 0.53125 -2.609375 0.53125zm14.527008 0q-1.796875 0 -3.234375 -0.828125q-1.421875 -0.84375 -2.234375 -2.34375q-0.8125 -1.5 -0.8125 -3.484375q0 -2.03125 0.8125 -3.515625q0.8125 -1.5 2.234375 -2.34375q1.4375 -0.84375 3.234375 -0.84375q2.28125 0 3.796875 1.171875q1.53125 1.171875 1.9375 3.15625l-2.1875 0q-0.25 -1.1875 -1.234375 -1.84375q-0.984375 -0.671875 -2.328125 -0.671875q-1.09375 0 -2.015625 0.546875q-0.921875 0.546875 -1.5 1.640625q-0.5625 1.078125 -0.5625 2.6875q0 1.1875 0.328125 2.109375q0.328125 0.921875 0.875 1.53125q0.5625 0.609375 1.3125 0.921875q0.75 0.3125 1.5625 0.3125q0.90625 0 1.640625 -0.28125q0.734375 -0.296875 1.234375 -0.875q0.515625 -0.578125 0.6875 -1.375l2.1875 0q-0.40625 1.921875 -1.9375 3.125q-1.53125 1.203125 -3.796875 1.203125zm13.398682 -0.296875q-1.140625 0 -1.984375 -0.34375q-0.828125 -0.359375 -1.265625 -1.203125q-0.4375 -0.859375 -0.4375 -2.296875l0 -7.125l-2.234375 0l0 -1.796875l2.234375 0l0.28125 -3.09375l1.84375 0l0 3.09375l3.703125 0l0 1.796875l-3.703125 0l0 7.125q0 1.1875 0.484375 1.609375q0.484375 0.40625 1.6875 0.40625l1.375 0l0 1.828125l-1.984375 0zm17.353394 0.296875q-1.765625 0 -3.1875 -0.8125q-1.421875 -0.828125 -2.234375 -2.328125q-0.8125 -1.515625 -0.8125 -3.515625q0 -2.046875 0.828125 -3.546875q0.828125 -1.515625 2.25 -2.328125q1.4375 -0.828125 3.203125 -0.828125q1.828125 0 3.234375 0.828125q1.40625 0.8125 2.21875 2.328125q0.828125 1.5 0.828125 3.53125q0 2.015625 -0.84375 3.53125q-0.828125 1.5 -2.25 2.328125q-1.40625 0.8125 -3.234375 0.8125zm0.03125 -1.8125q1.09375 0 2.015625 -0.546875q0.9375 -0.546875 1.515625 -1.625q0.59375 -1.09375 0.59375 -2.6875q0 -1.625 -0.578125 -2.703125q-0.5625 -1.078125 -1.484375 -1.625q-0.921875 -0.546875 -2.046875 -0.546875q-1.0625 0 -2.015625 0.546875q-0.9375 0.546875 -1.515625 1.625q-0.5625 1.078125 -0.5625 2.703125q0 1.59375 0.5625 2.6875q0.578125 1.078125 1.5 1.625q0.921875 0.546875 2.015625 0.546875zm15.972717 1.8125q-1.078125 0 -1.953125 -0.3125q-0.875 -0.3125 -1.53125 -0.84375q-0.65625 -0.53125 -1.09375 -1.25l0 0l-0.171875 2.109375l-1.9375 0l0 -18.234375l2.140625 0l0 7.578125q0.609375 -1.0 1.734375 -1.703125q1.140625 -0.703125 2.8125 -0.703125q1.875 0 3.25 0.875q1.390625 0.859375 2.15625 2.375q0.78125 1.5 0.78125 3.4375q0 1.921875 -0.78125 3.4375q-0.765625 1.515625 -2.15625 2.375q-1.390625 0.859375 -3.25 0.859375zm-0.25 -1.84375q1.265625 0 2.21875 -0.609375q0.96875 -0.609375 1.515625 -1.671875q0.546875 -1.078125 0.546875 -2.546875q0 -1.453125 -0.546875 -2.53125q-0.546875 -1.09375 -1.515625 -1.703125q-0.953125 -0.609375 -2.21875 -0.609375q-1.265625 0 -2.234375 0.609375q-0.953125 0.609375 -1.484375 1.703125q-0.53125 1.078125 -0.53125 2.53125q0 1.46875 0.53125 2.546875q0.53125 1.0625 1.484375 1.671875q0.96875 0.609375 2.234375 0.609375zm6.990143 7.125l0 -1.828125l0.984375 0q0.96875 0 1.375 -0.390625q0.40625 -0.390625 0.40625 -1.328125l0 -14.796875l2.125 0l0 14.84375q0 1.21875 -0.40625 1.984375q-0.40625 0.78125 -1.203125 1.140625q-0.796875 0.375 -1.953125 0.375l-1.328125 0zm3.859375 -21.046875q-0.640625 0 -1.0625 -0.421875q-0.40625 -0.421875 -0.40625 -1.046875q0 -0.640625 0.40625 -1.03125q0.421875 -0.390625 1.0625 -0.390625q0.609375 0 1.015625 0.390625q0.421875 0.390625 0.421875 1.03125q0 0.625 -0.421875 1.046875q-0.40625 0.421875 -1.015625 0.421875zm10.35788 15.765625q-1.78125 0 -3.171875 -0.828125q-1.390625 -0.84375 -2.1875 -2.34375q-0.78125 -1.5 -0.78125 -3.5q0 -2.03125 0.765625 -3.515625q0.78125 -1.5 2.1875 -2.328125q1.40625 -0.84375 3.234375 -0.84375q1.875 0 3.1875 0.84375q1.3125 0.828125 2.015625 2.1875q0.703125 1.34375 0.703125 2.96875q0 0.25 0 0.53125q0 0.28125 -0.03125 0.625l-10.453125 0l0 -1.640625l8.375 0q-0.078125 -1.75 -1.15625 -2.734375q-1.078125 -0.984375 -2.6875 -0.984375q-1.0625 0 -2.0 0.5q-0.9375 0.484375 -1.5 1.4375q-0.5625 0.9375 -0.5625 2.359375l0 0.71875q0 1.5625 0.5625 2.625q0.578125 1.0625 1.5 1.59375q0.9375 0.53125 2.0 0.53125q1.34375 0 2.203125 -0.59375q0.875 -0.59375 1.28125 -1.625l2.109375 0q-0.328125 1.15625 -1.09375 2.0625q-0.75 0.890625 -1.890625 1.421875q-1.125 0.53125 -2.609375 0.53125zm14.527008 0q-1.796875 0 -3.234375 -0.828125q-1.421875 -0.84375 -2.234375 -2.34375q-0.8125 -1.5 -0.8125 -3.484375q0 -2.03125 0.8125 -3.515625q0.8125 -1.5 2.234375 -2.34375q1.4375 -0.84375 3.234375 -0.84375q2.28125 0 3.796875 1.171875q1.53125 1.171875 1.9375 3.15625l-2.1875 0q-0.25 -1.1875 -1.234375 -1.84375q-0.984375 -0.671875 -2.328125 -0.671875q-1.09375 0 -2.015625 0.546875q-0.921875 0.546875 -1.5 1.640625q-0.5625 1.078125 -0.5625 2.6875q0 1.1875 0.328125 2.109375q0.328125 0.921875 0.875 1.53125q0.5625 0.609375 1.3125 0.921875q0.75 0.3125 1.5625 0.3125q0.90625 0 1.640625 -0.28125q0.734375 -0.296875 1.234375 -0.875q0.515625 -0.578125 0.6875 -1.375l2.1875 0q-0.40625 1.921875 -1.9375 3.125q-1.53125 1.203125 -3.796875 1.203125zm13.398651 -0.296875q-1.140625 0 -1.984375 -0.34375q-0.828125 -0.359375 -1.265625 -1.203125q-0.4375 -0.859375 -0.4375 -2.296875l0 -7.125l-2.234375 0l0 -1.796875l2.234375 0l0.28125 -3.09375l1.84375 0l0 3.09375l3.703125 0l0 1.796875l-3.703125 0l0 7.125q0 1.1875 0.484375 1.609375q0.484375 0.40625 1.6875 0.40625l1.375 0l0 1.828125l-1.984375 0zm9.725525 0.296875q-1.5625 0 -2.75 -0.53125q-1.1875 -0.53125 -1.890625 -1.46875q-0.703125 -0.953125 -0.84375 -2.25l2.171875 0q0.125 0.65625 0.53125 1.21875q0.40625 0.5625 1.09375 0.90625q0.703125 0.328125 1.71875 0.328125q0.890625 0 1.46875 -0.265625q0.578125 -0.265625 0.875 -0.71875q0.296875 -0.453125 0.296875 -0.984375q0 -0.78125 -0.375 -1.1875q-0.359375 -0.40625 -1.078125 -0.640625q-0.703125 -0.25 -1.71875 -0.421875q-0.828125 -0.15625 -1.640625 -0.40625q-0.8125 -0.25 -1.453125 -0.671875q-0.625 -0.421875 -1.0 -1.03125q-0.359375 -0.609375 -0.359375 -1.5q0 -1.078125 0.5625 -1.921875q0.578125 -0.859375 1.609375 -1.328125q1.046875 -0.484375 2.4375 -0.484375q2.046875 0 3.3125 0.984375q1.265625 0.984375 1.5 2.859375l-2.109375 0q-0.125 -0.96875 -0.828125 -1.5q-0.6875 -0.546875 -1.90625 -0.546875q-1.1875 0 -1.8125 0.484375q-0.609375 0.46875 -0.609375 1.265625q0 0.5 0.328125 0.890625q0.34375 0.390625 1.03125 0.671875q0.6875 0.28125 1.640625 0.453125q1.265625 0.234375 2.296875 0.609375q1.046875 0.375 1.6875 1.125q0.65625 0.75 0.65625 2.125q0 1.1875 -0.59375 2.078125q-0.59375 0.875 -1.6875 1.375q-1.09375 0.484375 -2.5625 0.484375zm14.842651 -0.296875l0 -12.765625l2.140625 0l0 12.765625l-2.140625 0zm1.078125 -15.46875q-0.640625 0 -1.0625 -0.421875q-0.40625 -0.421875 -0.40625 -1.046875q0 -0.640625 0.40625 -1.03125q0.421875 -0.390625 1.0625 -0.390625q0.59375 0 1.03125 0.390625q0.4375 0.390625 0.4375 1.03125q0 0.625 -0.4375 1.046875q-0.4375 0.421875 -1.03125 0.421875zm4.797516 15.46875l0 -12.765625l1.9375 0l0.09375 2.234375l0 0q0.609375 -1.203125 1.734375 -1.859375q1.125 -0.671875 2.578125 -0.671875q1.484375 0 2.578125 0.59375q1.09375 0.59375 1.703125 1.796875q0.609375 1.203125 0.609375 3.046875l0 7.625l-2.140625 0l0 -7.390625q0 -1.9375 -0.84375 -2.890625q-0.84375 -0.96875 -2.390625 -0.96875q-1.0625 0 -1.90625 0.53125q-0.828125 0.515625 -1.328125 1.5q-0.484375 0.96875 -0.484375 2.40625l0 6.8125l-2.140625 0zm25.431915 0.296875q-1.546875 0 -2.578125 -0.53125q-1.03125 -0.546875 -1.546875 -1.4375q-0.5 -0.90625 -0.5 -1.96875q0 -1.296875 0.671875 -2.1875q0.671875 -0.90625 1.890625 -1.375q1.234375 -0.46875 2.90625 -0.46875l3.359375 0q0 -1.1875 -0.375 -1.984375q-0.359375 -0.796875 -1.0625 -1.203125q-0.6875 -0.40625 -1.71875 -0.40625q-1.21875 0 -2.109375 0.609375q-0.890625 0.59375 -1.078125 1.796875l-2.1875 0q0.15625 -1.375 0.921875 -2.296875q0.78125 -0.921875 1.96875 -1.40625q1.1875 -0.5 2.484375 -0.5q1.765625 0 2.9375 0.640625q1.1875 0.640625 1.765625 1.796875q0.59375 1.15625 0.59375 2.71875l0 7.90625l-1.90625 0l-0.125 -2.25l0 0q-0.25 0.53125 -0.65625 1.0q-0.390625 0.46875 -0.90625 0.8125q-0.515625 0.34375 -1.203125 0.53125q-0.6875 0.203125 -1.546875 0.203125zm0.328125 -1.796875q0.890625 0 1.609375 -0.359375q0.734375 -0.375 1.234375 -1.015625q0.5 -0.640625 0.765625 -1.421875q0.265625 -0.796875 0.265625 -1.65625l0 -0.078125l-3.1875 0q-1.234375 0 -2.0 0.296875q-0.765625 0.28125 -1.09375 0.8125q-0.328125 0.515625 -0.328125 1.171875q0 0.6875 0.3125 1.203125q0.328125 0.5 0.9375 0.78125q0.625 0.265625 1.484375 0.265625zm21.078308 7.375q-1.71875 0 -3.046875 -0.453125q-1.328125 -0.4375 -2.0625 -1.34375q-0.734375 -0.90625 -0.734375 -2.25q0 -0.59375 0.234375 -1.25q0.234375 -0.65625 0.828125 -1.28125q0.609375 -0.640625 1.6875 -1.140625l1.46875 0.859375q-1.34375 0.546875 -1.75 1.265625q-0.390625 0.734375 -0.390625 1.34375q0 0.828125 0.46875 1.390625q0.484375 0.5625 1.34375 0.828125q0.859375 0.28125 1.953125 0.28125q1.09375 0 1.875 -0.3125q0.78125 -0.3125 1.203125 -0.859375q0.4375 -0.546875 0.4375 -1.3125q0 -0.875 -0.65625 -1.484375q-0.65625 -0.59375 -2.5 -0.6875q-1.5 -0.109375 -2.515625 -0.28125q-1.015625 -0.171875 -1.671875 -0.40625q-0.65625 -0.25 -1.109375 -0.546875q-0.4375 -0.3125 -0.78125 -0.640625l0 -0.578125l2.453125 -2.4375l1.84375 0.65625l-2.53125 2.28125l0.328125 -0.890625q0.28125 0.203125 0.53125 0.390625q0.25 0.171875 0.6875 0.296875q0.4375 0.125 1.203125 0.234375q0.765625 0.09375 2.046875 0.203125q1.734375 0.125 2.78125 0.609375q1.0625 0.46875 1.53125 1.28125q0.46875 0.8125 0.46875 1.9375q0 1.078125 -0.59375 2.046875q-0.59375 0.984375 -1.84375 1.609375q-1.234375 0.640625 -3.1875 0.640625zm-0.03125 -9.875q-1.59375 0 -2.71875 -0.609375q-1.125 -0.609375 -1.71875 -1.625q-0.578125 -1.03125 -0.578125 -2.296875q0 -1.265625 0.59375 -2.28125q0.609375 -1.015625 1.71875 -1.625q1.109375 -0.625 2.703125 -0.625q1.609375 0 2.71875 0.625q1.109375 0.609375 1.6875 1.625q0.59375 1.015625 0.59375 2.28125q0 1.265625 -0.59375 2.296875q-0.578125 1.015625 -1.6875 1.625q-1.109375 0.609375 -2.71875 0.609375zm0 -1.75q1.375 0 2.15625 -0.703125q0.78125 -0.71875 0.78125 -2.078125q0 -1.34375 -0.78125 -2.046875q-0.78125 -0.71875 -2.15625 -0.71875q-1.328125 0 -2.15625 0.71875q-0.828125 0.703125 -0.828125 2.046875q0 1.359375 0.8125 2.078125q0.8125 0.703125 2.171875 0.703125zm2.078125 -5.21875l-0.625 -1.796875l5.21875 0l0 1.59375l-4.59375 0.203125zm7.2424927 10.96875l0 -12.765625l2.140625 0l0 12.765625l-2.140625 0zm1.078125 -15.46875q-0.640625 0 -1.0625 -0.421875q-0.40625 -0.421875 -0.40625 -1.046875q0 -0.640625 0.40625 -1.03125q0.421875 -0.390625 1.0625 -0.390625q0.59375 0 1.03125 0.390625q0.4375 0.390625 0.4375 1.03125q0 0.625 -0.4375 1.046875q-0.4375 0.421875 -1.03125 0.421875zm8.485016 15.46875l-4.84375 -12.765625l2.234375 0l3.84375 10.71875l0 0l3.875 -10.71875l2.171875 0l-4.828125 12.765625l-2.453125 0zm14.636505 0.296875q-1.78125 0 -3.171875 -0.828125q-1.390625 -0.84375 -2.1875 -2.34375q-0.78125 -1.5 -0.78125 -3.5q0 -2.03125 0.765625 -3.515625q0.78125 -1.5 2.1875 -2.328125q1.40625 -0.84375 3.234375 -0.84375q1.875 0 3.1875 0.84375q1.3125 0.828125 2.015625 2.1875q0.703125 1.34375 0.703125 2.96875q0 0.25 0 0.53125q0 0.28125 -0.03125 0.625l-10.453125 0l0 -1.640625l8.375 0q-0.078125 -1.75 -1.15625 -2.734375q-1.078125 -0.984375 -2.6875 -0.984375q-1.0625 0 -2.0 0.5q-0.9375 0.484375 -1.5 1.4375q-0.5625 0.9375 -0.5625 2.359375l0 0.71875q0 1.5625 0.5625 2.625q0.578125 1.0625 1.5 1.59375q0.9375 0.53125 2.0 0.53125q1.34375 0 2.203125 -0.59375q0.875 -0.59375 1.28125 -1.625l2.109375 0q-0.328125 1.15625 -1.09375 2.0625q-0.75 0.890625 -1.890625 1.421875q-1.125 0.53125 -2.609375 0.53125zm8.777039 -0.296875l0 -12.765625l1.9375 0l0.09375 2.234375l0 0q0.609375 -1.203125 1.734375 -1.859375q1.125 -0.671875 2.578125 -0.671875q1.484375 0 2.578125 0.59375q1.09375 0.59375 1.703125 1.796875q0.609375 1.203125 0.609375 3.046875l0 7.625l-2.140625 0l0 -7.390625q0 -1.9375 -0.84375 -2.890625q-0.84375 -0.96875 -2.390625 -0.96875q-1.0625 0 -1.90625 0.53125q-0.828125 0.515625 -1.328125 1.5q-0.484375 0.96875 -0.484375 2.40625l0 6.8125l-2.140625 0zm26.931915 0.296875q-1.84375 0 -3.2500305 -0.859375q-1.40625 -0.875 -2.171875 -2.390625q-0.765625 -1.53125 -0.765625 -3.453125q0 -1.921875 0.765625 -3.421875q0.765625 -1.515625 2.171875 -2.375q1.4062805 -0.859375 3.2812805 -0.859375q1.53125 0 2.703125 0.640625q1.1875 0.625 1.84375 1.765625l0 -7.578125l2.140625 0l0 18.234375l-1.9375 0l-0.203125 -2.109375l0 0q-0.40625 0.640625 -1.046875 1.1875q-0.625 0.546875 -1.5 0.890625q-0.859375 0.328125 -2.03125 0.328125zm0.234375 -1.84375q1.265625 0 2.21875 -0.609375q0.96875 -0.609375 1.5 -1.671875q0.546875 -1.078125 0.546875 -2.546875q0 -1.453125 -0.546875 -2.53125q-0.53125 -1.09375 -1.5 -1.703125q-0.953125 -0.609375 -2.21875 -0.609375q-1.21875 0 -2.203125 0.609375q-0.9687805 0.609375 -1.5000305 1.703125q-0.53125 1.078125 -0.53125 2.53125q0 1.46875 0.53125 2.546875q0.53125 1.0625 1.5000305 1.671875q0.984375 0.609375 2.203125 0.609375zm14.146362 1.84375q-1.546875 0 -2.578125 -0.53125q-1.03125 -0.546875 -1.546875 -1.4375q-0.5 -0.90625 -0.5 -1.96875q0 -1.296875 0.671875 -2.1875q0.671875 -0.90625 1.890625 -1.375q1.234375 -0.46875 2.90625 -0.46875l3.359375 0q0 -1.1875 -0.375 -1.984375q-0.359375 -0.796875 -1.0625 -1.203125q-0.6875 -0.40625 -1.71875 -0.40625q-1.21875 0 -2.109375 0.609375q-0.890625 0.59375 -1.078125 1.796875l-2.1875 0q0.15625 -1.375 0.921875 -2.296875q0.78125 -0.921875 1.96875 -1.40625q1.1875 -0.5 2.484375 -0.5q1.765625 0 2.9375 0.640625q1.1875 0.640625 1.765625 1.796875q0.59375 1.15625 0.59375 2.71875l0 7.90625l-1.90625 0l-0.125 -2.25l0 0q-0.25 0.53125 -0.65625 1.0q-0.390625 0.46875 -0.90625 0.8125q-0.515625 0.34375 -1.203125 0.53125q-0.6875 0.203125 -1.546875 0.203125zm0.328125 -1.796875q0.890625 0 1.609375 -0.359375q0.734375 -0.375 1.234375 -1.015625q0.5 -0.640625 0.765625 -1.421875q0.265625 -0.796875 0.265625 -1.65625l0 -0.078125l-3.1875 0q-1.234375 0 -2.0 0.296875q-0.765625 0.28125 -1.09375 0.8125q-0.328125 0.515625 -0.328125 1.171875q0 0.6875 0.3125 1.203125q0.328125 0.5 0.9375 0.78125q0.625 0.265625 1.484375 0.265625zm13.955078 1.5q-1.140625 0 -1.984375 -0.34375q-0.828125 -0.359375 -1.265625 -1.203125q-0.4375 -0.859375 -0.4375 -2.296875l0 -7.125l-2.234375 0l0 -1.796875l2.234375 0l0.28125 -3.09375l1.84375 0l0 3.09375l3.703125 0l0 1.796875l-3.703125 0l0 7.125q0 1.1875 0.484375 1.609375q0.484375 0.40625 1.6875 0.40625l1.375 0l0 1.828125l-1.984375 0zm9.069275 0.296875q-1.546875 0 -2.578125 -0.53125q-1.03125 -0.546875 -1.546875 -1.4375q-0.5 -0.90625 -0.5 -1.96875q0 -1.296875 0.671875 -2.1875q0.671875 -0.90625 1.890625 -1.375q1.234375 -0.46875 2.90625 -0.46875l3.359375 0q0 -1.1875 -0.375 -1.984375q-0.359375 -0.796875 -1.0625 -1.203125q-0.6875 -0.40625 -1.71875 -0.40625q-1.21875 0 -2.109375 0.609375q-0.890625 0.59375 -1.078125 1.796875l-2.1875 0q0.15625 -1.375 0.921875 -2.296875q0.78125 -0.921875 1.96875 -1.40625q1.1875 -0.5 2.484375 -0.5q1.765625 0 2.9375 0.640625q1.1875 0.640625 1.765625 1.796875q0.59375 1.15625 0.59375 2.71875l0 7.90625l-1.90625 0l-0.125 -2.25l0 0q-0.25 0.53125 -0.65625 1.0q-0.390625 0.46875 -0.90625 0.8125q-0.515625 0.34375 -1.203125 0.53125q-0.6875 0.203125 -1.546875 0.203125zm0.328125 -1.796875q0.890625 0 1.609375 -0.359375q0.734375 -0.375 1.234375 -1.015625q0.5 -0.640625 0.765625 -1.421875q0.265625 -0.796875 0.265625 -1.65625l0 -0.078125l-3.1875 0q-1.234375 0 -2.0 0.296875q-0.765625 0.28125 -1.09375 0.8125q-0.328125 0.515625 -0.328125 1.171875q0 0.6875 0.3125 1.203125q0.328125 0.5 0.9375 0.78125q0.625 0.265625 1.484375 0.265625zm14.106628 1.796875q-1.5625 0 -2.75 -0.53125q-1.1875 -0.53125 -1.890625 -1.46875q-0.703125 -0.953125 -0.84375 -2.25l2.171875 0q0.125 0.65625 0.53125 1.21875q0.40625 0.5625 1.09375 0.90625q0.703125 0.328125 1.71875 0.328125q0.890625 0 1.46875 -0.265625q0.578125 -0.265625 0.875 -0.71875q0.296875 -0.453125 0.296875 -0.984375q0 -0.78125 -0.375 -1.1875q-0.359375 -0.40625 -1.078125 -0.640625q-0.703125 -0.25 -1.71875 -0.421875q-0.828125 -0.15625 -1.640625 -0.40625q-0.8125 -0.25 -1.453125 -0.671875q-0.625 -0.421875 -1.0 -1.03125q-0.359375 -0.609375 -0.359375 -1.5q0 -1.078125 0.5625 -1.921875q0.578125 -0.859375 1.609375 -1.328125q1.046875 -0.484375 2.4375 -0.484375q2.046875 0 3.3125 0.984375q1.265625 0.984375 1.5 2.859375l-2.109375 0q-0.125 -0.96875 -0.828125 -1.5q-0.6875 -0.546875 -1.90625 -0.546875q-1.1875 0 -1.8125 0.484375q-0.609375 0.46875 -0.609375 1.265625q0 0.5 0.328125 0.890625q0.34375 0.390625 1.03125 0.671875q0.6875 0.28125 1.640625 0.453125q1.265625 0.234375 2.296875 0.609375q1.046875 0.375 1.6875 1.125q0.65625 0.75 0.65625 2.125q0 1.1875 -0.59375 2.078125q-0.59375 0.875 -1.6875 1.375q-1.09375 0.484375 -2.5625 0.484375zm13.511597 0q-1.78125 0 -3.171875 -0.828125q-1.390625 -0.84375 -2.1875 -2.34375q-0.78125 -1.5 -0.78125 -3.5q0 -2.03125 0.765625 -3.515625q0.78125 -1.5 2.1875 -2.328125q1.40625 -0.84375 3.234375 -0.84375q1.875 0 3.1875 0.84375q1.3125 0.828125 2.015625 2.1875q0.703125 1.34375 0.703125 2.96875q0 0.25 0 0.53125q0 0.28125 -0.03125 0.625l-10.453125 0l0 -1.640625l8.375 0q-0.078125 -1.75 -1.15625 -2.734375q-1.078125 -0.984375 -2.6875 -0.984375q-1.0625 0 -2.0 0.5q-0.9375 0.484375 -1.5 1.4375q-0.5625 0.9375 -0.5625 2.359375l0 0.71875q0 1.5625 0.5625 2.625q0.578125 1.0625 1.5 1.59375q0.9375 0.53125 2.0 0.53125q1.34375 0 2.203125 -0.59375q0.875 -0.59375 1.28125 -1.625l2.109375 0q-0.328125 1.15625 -1.09375 2.0625q-0.75 0.890625 -1.890625 1.421875q-1.125 0.53125 -2.609375 0.53125zm13.3619995 -0.296875q-1.140625 0 -1.984375 -0.34375q-0.828125 -0.359375 -1.265625 -1.203125q-0.4375 -0.859375 -0.4375 -2.296875l0 -7.125l-2.234375 0l0 -1.796875l2.234375 0l0.28125 -3.09375l1.84375 0l0 3.09375l3.703125 0l0 1.796875l-3.703125 0l0 7.125q0 1.1875 0.484375 1.609375q0.484375 0.40625 1.6875 0.40625l1.375 0l0 1.828125l-1.984375 0z" fill-rule="nonzero"/><path fill="#005088" d="m41.87863 320.341l0 -1.8125l10.03125 0l0 1.8125l-10.03125 0z" fill-rule="nonzero"/><path fill="#005088" d="m85.26866 327.216q-1.953125 0 -3.40625 -0.703125q-1.4375 -0.703125 -2.21875 -1.96875q-0.78125 -1.265625 -0.78125 -2.9375l2.234375 0q0 1.03125 0.46875 1.90625q0.484375 0.875 1.40625 1.390625q0.9375 0.515625 2.296875 0.515625q1.1875 0 2.03125 -0.390625q0.859375 -0.390625 1.296875 -1.0625q0.453125 -0.6875 0.453125 -1.5625q0 -1.03125 -0.453125 -1.671875q-0.4375 -0.65625 -1.203125 -1.0625q-0.75 -0.40625 -1.75 -0.71875q-1.0 -0.3125 -2.09375 -0.6875q-2.109375 -0.71875 -3.09375 -1.765625q-0.984375 -1.046875 -0.984375 -2.75q0 -1.4375 0.671875 -2.53125q0.671875 -1.09375 1.921875 -1.703125q1.25 -0.625 2.96875 -0.625q1.703125 0 2.953125 0.640625q1.265625 0.625 1.96875 1.734375q0.703125 1.09375 0.703125 2.53125l-2.21875 0q0 -0.734375 -0.390625 -1.4375q-0.375 -0.703125 -1.15625 -1.171875q-0.765625 -0.46875 -1.921875 -0.46875q-0.96875 -0.03125 -1.71875 0.3125q-0.75 0.34375 -1.171875 0.984375q-0.40625 0.625 -0.40625 1.53125q0 0.859375 0.359375 1.390625q0.375 0.53125 1.0625 0.90625q0.703125 0.359375 1.640625 0.671875q0.9375 0.296875 2.078125 0.6875q1.296875 0.421875 2.296875 1.046875q1.0 0.625 1.5625 1.59375q0.578125 0.953125 0.578125 2.4375q0 1.265625 -0.671875 2.40625q-0.671875 1.125 -2.0 1.828125q-1.3125 0.703125 -3.3125 0.703125zm14.518463 0q-1.78125 0 -3.171875 -0.828125q-1.390625 -0.84375 -2.1875 -2.34375q-0.78125 -1.5 -0.78125 -3.5q0 -2.03125 0.765625 -3.515625q0.78125 -1.5 2.1875 -2.328125q1.40625 -0.84375 3.234375 -0.84375q1.875 0 3.1875 0.84375q1.3125 0.828125 2.015625 2.1875q0.703125 1.34375 0.703125 2.96875q0 0.25 0 0.53125q0 0.28125 -0.03125 0.625l-10.453125 0l0 -1.640625l8.375 0q-0.078125 -1.75 -1.15625 -2.734375q-1.078125 -0.984375 -2.6875 -0.984375q-1.0625 0 -2.0 0.5q-0.9375 0.484375 -1.5 1.4375q-0.5625 0.9375 -0.5625 2.359375l0 0.71875q0 1.5625 0.5625 2.625q0.578125 1.0625 1.5 1.59375q0.9375 0.53125 2.0 0.53125q1.34375 0 2.203125 -0.59375q0.875 -0.59375 1.28125 -1.625l2.109375 0q-0.328125 1.15625 -1.09375 2.0625q-0.75 0.890625 -1.890625 1.421875q-1.125 0.53125 -2.609375 0.53125zm13.747894 5.578125q-1.71875 0 -3.046875 -0.453125q-1.328125 -0.4375 -2.0625 -1.34375q-0.734375 -0.90625 -0.734375 -2.25q0 -0.59375 0.234375 -1.25q0.234375 -0.65625 0.828125 -1.28125q0.609375 -0.640625 1.6875 -1.140625l1.46875 0.859375q-1.34375 0.546875 -1.75 1.265625q-0.390625 0.734375 -0.390625 1.34375q0 0.828125 0.46875 1.390625q0.484375 0.5625 1.34375 0.828125q0.859375 0.28125 1.953125 0.28125q1.09375 0 1.875 -0.3125q0.78125 -0.3125 1.203125 -0.859375q0.4375 -0.546875 0.4375 -1.3125q0 -0.875 -0.65625 -1.484375q-0.65625 -0.59375 -2.5 -0.6875q-1.5 -0.109375 -2.515625 -0.28125q-1.015625 -0.171875 -1.671875 -0.40625q-0.65625 -0.25 -1.109375 -0.546875q-0.4375 -0.3125 -0.78125 -0.640625l0 -0.578125l2.453125 -2.4375l1.84375 0.65625l-2.53125 2.28125l0.328125 -0.890625q0.28125 0.203125 0.53125 0.390625q0.25 0.171875 0.6875 0.296875q0.4375 0.125 1.203125 0.234375q0.765625 0.09375 2.046875 0.203125q1.734375 0.125 2.78125 0.609375q1.0625 0.46875 1.53125 1.28125q0.46875 0.8125 0.46875 1.9375q0 1.078125 -0.59375 2.046875q-0.59375 0.984375 -1.84375 1.609375q-1.234375 0.640625 -3.1875 0.640625zm-0.03125 -9.875q-1.59375 0 -2.71875 -0.609375q-1.125 -0.609375 -1.71875 -1.625q-0.578125 -1.03125 -0.578125 -2.296875q0 -1.265625 0.59375 -2.28125q0.609375 -1.015625 1.71875 -1.625q1.109375 -0.625 2.703125 -0.625q1.609375 0 2.71875 0.625q1.109375 0.609375 1.6875 1.625q0.59375 1.015625 0.59375 2.28125q0 1.265625 -0.59375 2.296875q-0.578125 1.015625 -1.6875 1.625q-1.109375 0.609375 -2.71875 0.609375zm0 -1.75q1.375 0 2.15625 -0.703125q0.78125 -0.71875 0.78125 -2.078125q0 -1.34375 -0.78125 -2.046875q-0.78125 -0.71875 -2.15625 -0.71875q-1.328125 0 -2.15625 0.71875q-0.828125 0.703125 -0.828125 2.046875q0 1.359375 0.8125 2.078125q0.8125 0.703125 2.171875 0.703125zm2.078125 -5.21875l-0.625 -1.796875l5.21875 0l0 1.59375l-4.59375 0.203125zm7.0393677 10.96875l0 -12.765625l1.9375 0l0.125 1.828125l0 0q0.609375 -0.984375 1.625 -1.546875q1.03125 -0.578125 2.25 -0.578125q0.984375 0 1.78125 0.265625q0.796875 0.265625 1.421875 0.8125q0.625 0.53125 0.96875 1.375l0 0q0.65625 -1.171875 1.828125 -1.8125q1.171875 -0.640625 2.453125 -0.640625q1.5 0 2.578125 0.59375q1.09375 0.59375 1.703125 1.796875q0.609375 1.203125 0.609375 3.046875l0 7.625l-2.09375 0l0 -7.390625q0 -1.9375 -0.796875 -2.890625q-0.78125 -0.96875 -2.21875 -0.96875q-1.0 0 -1.78125 0.53125q-0.78125 0.515625 -1.234375 1.5q-0.453125 0.984375 -0.453125 2.4375l0 6.78125l-2.140625 0l0 -7.390625q0 -1.9375 -0.78125 -2.890625q-0.78125 -0.96875 -2.203125 -0.96875q-0.96875 0 -1.75 0.53125q-0.78125 0.515625 -1.234375 1.5q-0.453125 0.984375 -0.453125 2.4375l0 6.78125l-2.140625 0zm28.176758 0.296875q-1.78125 0 -3.171875 -0.828125q-1.390625 -0.84375 -2.1875 -2.34375q-0.78125 -1.5 -0.78125 -3.5q0 -2.03125 0.765625 -3.515625q0.78125 -1.5 2.1875 -2.328125q1.40625 -0.84375 3.234375 -0.84375q1.875 0 3.1875 0.84375q1.3125 0.828125 2.015625 2.1875q0.703125 1.34375 0.703125 2.96875q0 0.25 0 0.53125q0 0.28125 -0.03125 0.625l-10.453125 0l0 -1.640625l8.375 0q-0.078125 -1.75 -1.15625 -2.734375q-1.078125 -0.984375 -2.6875 -0.984375q-1.0625 0 -2.0 0.5q-0.9375 0.484375 -1.5 1.4375q-0.5625 0.9375 -0.5625 2.359375l0 0.71875q0 1.5625 0.5625 2.625q0.578125 1.0625 1.5 1.59375q0.9375 0.53125 2.0 0.53125q1.34375 0 2.203125 -0.59375q0.875 -0.59375 1.28125 -1.625l2.109375 0q-0.328125 1.15625 -1.09375 2.0625q-0.75 0.890625 -1.890625 1.421875q-1.125 0.53125 -2.609375 0.53125zm8.777023 -0.296875l0 -12.765625l1.9375 0l0.09375 2.234375l0 0q0.609375 -1.203125 1.734375 -1.859375q1.125 -0.671875 2.578125 -0.671875q1.484375 0 2.578125 0.59375q1.09375 0.59375 1.703125 1.796875q0.609375 1.203125 0.609375 3.046875l0 7.625l-2.140625 0l0 -7.390625q0 -1.9375 -0.84375 -2.890625q-0.84375 -0.96875 -2.390625 -0.96875q-1.0625 0 -1.90625 0.53125q-0.828125 0.515625 -1.328125 1.5q-0.484375 0.96875 -0.484375 2.40625l0 6.8125l-2.140625 0zm19.553986 0q-1.140625 0 -1.984375 -0.34375q-0.828125 -0.359375 -1.265625 -1.203125q-0.4375 -0.859375 -0.4375 -2.296875l0 -7.125l-2.234375 0l0 -1.796875l2.234375 0l0.28125 -3.09375l1.84375 0l0 3.09375l3.703125 0l0 1.796875l-3.703125 0l0 7.125q0 1.1875 0.484375 1.609375q0.484375 0.40625 1.6875 0.40625l1.375 0l0 1.828125l-1.984375 0zm9.06926 0.296875q-1.546875 0 -2.578125 -0.53125q-1.03125 -0.546875 -1.546875 -1.4375q-0.5 -0.90625 -0.5 -1.96875q0 -1.296875 0.671875 -2.1875q0.671875 -0.90625 1.890625 -1.375q1.234375 -0.46875 2.90625 -0.46875l3.359375 0q0 -1.1875 -0.375 -1.984375q-0.359375 -0.796875 -1.0625 -1.203125q-0.6875 -0.40625 -1.71875 -0.40625q-1.21875 0 -2.109375 0.609375q-0.890625 0.59375 -1.078125 1.796875l-2.1875 0q0.15625 -1.375 0.921875 -2.296875q0.78125 -0.921875 1.96875 -1.40625q1.1875 -0.5 2.484375 -0.5q1.765625 0 2.9375 0.640625q1.1875 0.640625 1.765625 1.796875q0.59375 1.15625 0.59375 2.71875l0 7.90625l-1.90625 0l-0.125 -2.25l0 0q-0.25 0.53125 -0.65625 1.0q-0.390625 0.46875 -0.90625 0.8125q-0.515625 0.34375 -1.203125 0.53125q-0.6875 0.203125 -1.546875 0.203125zm0.328125 -1.796875q0.890625 0 1.609375 -0.359375q0.734375 -0.375 1.234375 -1.015625q0.5 -0.640625 0.765625 -1.421875q0.265625 -0.796875 0.265625 -1.65625l0 -0.078125l-3.1875 0q-1.234375 0 -2.0 0.296875q-0.765625 0.28125 -1.09375 0.8125q-0.328125 0.515625 -0.328125 1.171875q0 0.6875 0.3125 1.203125q0.328125 0.5 0.9375 0.78125q0.625 0.265625 1.484375 0.265625zm13.955109 1.5q-1.140625 0 -1.984375 -0.34375q-0.828125 -0.359375 -1.265625 -1.203125q-0.4375 -0.859375 -0.4375 -2.296875l0 -7.125l-2.234375 0l0 -1.796875l2.234375 0l0.28125 -3.09375l1.84375 0l0 3.09375l3.703125 0l0 1.796875l-3.703125 0l0 7.125q0 1.1875 0.484375 1.609375q0.484375 0.40625 1.6875 0.40625l1.375 0l0 1.828125l-1.984375 0zm5.1161346 0l0 -12.765625l2.140625 0l0 12.765625l-2.140625 0zm1.078125 -15.46875q-0.640625 0 -1.0625 -0.421875q-0.40625 -0.421875 -0.40625 -1.046875q0 -0.640625 0.40625 -1.03125q0.421875 -0.390625 1.0625 -0.390625q0.59375 0 1.03125 0.390625q0.4375 0.390625 0.4375 1.03125q0 0.625 -0.4375 1.046875q-0.4375 0.421875 -1.03125 0.421875zm10.500641 15.765625q-1.765625 0 -3.1875 -0.8125q-1.421875 -0.828125 -2.234375 -2.328125q-0.8125 -1.515625 -0.8125 -3.515625q0 -2.046875 0.828125 -3.546875q0.828125 -1.515625 2.25 -2.328125q1.4375 -0.828125 3.203125 -0.828125q1.828125 0 3.234375 0.828125q1.40625 0.8125 2.21875 2.328125q0.828125 1.5 0.828125 3.53125q0 2.015625 -0.84375 3.53125q-0.828125 1.5 -2.25 2.328125q-1.40625 0.8125 -3.234375 0.8125zm0.03125 -1.8125q1.09375 0 2.015625 -0.546875q0.9375 -0.546875 1.515625 -1.625q0.59375 -1.09375 0.59375 -2.6875q0 -1.625 -0.578125 -2.703125q-0.5625 -1.078125 -1.484375 -1.625q-0.921875 -0.546875 -2.046875 -0.546875q-1.0625 0 -2.015625 0.546875q-0.9375 0.546875 -1.515625 1.625q-0.5625 1.078125 -0.5625 2.703125q0 1.59375 0.5625 2.6875q0.578125 1.078125 1.5 1.625q0.921875 0.546875 2.015625 0.546875zm9.285217 1.515625l0 -12.765625l1.9375 0l0.09375 2.234375l0 0q0.609375 -1.203125 1.734375 -1.859375q1.125 -0.671875 2.578125 -0.671875q1.484375 0 2.578125 0.59375q1.09375 0.59375 1.703125 1.796875q0.609375 1.203125 0.609375 3.046875l0 7.625l-2.140625 0l0 -7.390625q0 -1.9375 -0.84375 -2.890625q-0.84375 -0.96875 -2.390625 -0.96875q-1.0625 0 -1.90625 0.53125q-0.828125 0.515625 -1.328125 1.5q-0.484375 0.96875 -0.484375 2.40625l0 6.8125l-2.140625 0zm26.978775 0.296875q-1.765625 0 -3.1875 -0.8125q-1.421875 -0.828125 -2.234375 -2.328125q-0.8125 -1.515625 -0.8125 -3.515625q0 -2.046875 0.828125 -3.546875q0.828125 -1.515625 2.25 -2.328125q1.4375 -0.828125 3.203125 -0.828125q1.8281097 0 3.2343597 0.828125q1.40625 0.8125 2.21875 2.328125q0.828125 1.5 0.828125 3.53125q0 2.015625 -0.84375 3.53125q-0.828125 1.5 -2.25 2.328125q-1.40625 0.8125 -3.2343597 0.8125zm0.03125 -1.8125q1.0937347 0 2.0156097 -0.546875q0.9375 -0.546875 1.515625 -1.625q0.59375 -1.09375 0.59375 -2.6875q0 -1.625 -0.578125 -2.703125q-0.5625 -1.078125 -1.484375 -1.625q-0.921875 -0.546875 -2.0468597 -0.546875q-1.0625 0 -2.015625 0.546875q-0.9375 0.546875 -1.515625 1.625q-0.5625 1.078125 -0.5625 2.703125q0 1.59375 0.5625 2.6875q0.578125 1.078125 1.5 1.625q0.921875 0.546875 2.015625 0.546875zm10.003952 1.515625l0 -14.734375q0 -1.21875 0.40625 -1.984375q0.40625 -0.78125 1.203125 -1.140625q0.796875 -0.375 1.953125 -0.375l1.453125 0l0 1.828125l-1.125 0q-0.921875 0 -1.34375 0.375q-0.421875 0.375 -0.421875 1.34375l0 14.6875l-2.125 0zm-1.953125 -10.96875l0 -1.796875l7.296875 0l0 1.796875l-7.296875 0zm16.786377 10.96875l0 -12.765625l2.140625 0l0 12.765625l-2.140625 0zm1.078125 -15.46875q-0.640625 0 -1.0625 -0.421875q-0.40625 -0.421875 -0.40625 -1.046875q0 -0.640625 0.40625 -1.03125q0.421875 -0.390625 1.0625 -0.390625q0.59375 0 1.03125 0.390625q0.4375 0.390625 0.4375 1.03125q0 0.625 -0.4375 1.046875q-0.4375 0.421875 -1.03125 0.421875zm4.7974854 15.46875l0 -12.765625l1.9375 0l0.125 1.828125l0 0q0.609375 -0.984375 1.625 -1.546875q1.03125 -0.578125 2.25 -0.578125q0.984375 0 1.78125 0.265625q0.796875 0.265625 1.421875 0.8125q0.625 0.53125 0.96875 1.375l0 0q0.65625 -1.171875 1.828125 -1.8125q1.171875 -0.640625 2.453125 -0.640625q1.5 0 2.578125 0.59375q1.09375 0.59375 1.703125 1.796875q0.609375 1.203125 0.609375 3.046875l0 7.625l-2.09375 0l0 -7.390625q0 -1.9375 -0.796875 -2.890625q-0.78125 -0.96875 -2.21875 -0.96875q-1.0 0 -1.78125 0.53125q-0.78125 0.515625 -1.234375 1.5q-0.453125 0.984375 -0.453125 2.4375l0 6.78125l-2.140625 0l0 -7.390625q0 -1.9375 -0.78125 -2.890625q-0.78125 -0.96875 -2.203125 -0.96875q-0.96875 0 -1.75 0.53125q-0.78125 0.515625 -1.234375 1.5q-0.453125 0.984375 -0.453125 2.4375l0 6.78125l-2.140625 0zm26.723633 0.296875q-1.546875 0 -2.578125 -0.53125q-1.03125 -0.546875 -1.546875 -1.4375q-0.5 -0.90625 -0.5 -1.96875q0 -1.296875 0.671875 -2.1875q0.671875 -0.90625 1.890625 -1.375q1.234375 -0.46875 2.90625 -0.46875l3.359375 0q0 -1.1875 -0.375 -1.984375q-0.359375 -0.796875 -1.0625 -1.203125q-0.6875 -0.40625 -1.71875 -0.40625q-1.21875 0 -2.109375 0.609375q-0.890625 0.59375 -1.078125 1.796875l-2.1875 0q0.15625 -1.375 0.921875 -2.296875q0.78125 -0.921875 1.96875 -1.40625q1.1875 -0.5 2.484375 -0.5q1.765625 0 2.9375 0.640625q1.1875 0.640625 1.765625 1.796875q0.59375 1.15625 0.59375 2.71875l0 7.90625l-1.90625 0l-0.125 -2.25l0 0q-0.25 0.53125 -0.65625 1.0q-0.390625 0.46875 -0.90625 0.8125q-0.515625 0.34375 -1.203125 0.53125q-0.6875 0.203125 -1.546875 0.203125zm0.328125 -1.796875q0.890625 0 1.609375 -0.359375q0.734375 -0.375 1.234375 -1.015625q0.5 -0.640625 0.765625 -1.421875q0.265625 -0.796875 0.265625 -1.65625l0 -0.078125l-3.1875 0q-1.234375 0 -2.0 0.296875q-0.765625 0.28125 -1.09375 0.8125q-0.328125 0.515625 -0.328125 1.171875q0 0.6875 0.3125 1.203125q0.328125 0.5 0.9375 0.78125q0.625 0.265625 1.484375 0.265625zm14.341034 7.375q-1.71875 0 -3.046875 -0.453125q-1.328125 -0.4375 -2.0625 -1.34375q-0.734375 -0.90625 -0.734375 -2.25q0 -0.59375 0.234375 -1.25q0.234375 -0.65625 0.828125 -1.28125q0.609375 -0.640625 1.6875 -1.140625l1.46875 0.859375q-1.34375 0.546875 -1.75 1.265625q-0.390625 0.734375 -0.390625 1.34375q0 0.828125 0.46875 1.390625q0.484375 0.5625 1.34375 0.828125q0.859375 0.28125 1.953125 0.28125q1.09375 0 1.875 -0.3125q0.78125 -0.3125 1.203125 -0.859375q0.4375 -0.546875 0.4375 -1.3125q0 -0.875 -0.65625 -1.484375q-0.65625 -0.59375 -2.5 -0.6875q-1.5 -0.109375 -2.515625 -0.28125q-1.015625 -0.171875 -1.671875 -0.40625q-0.65625 -0.25 -1.109375 -0.546875q-0.4375 -0.3125 -0.78125 -0.640625l0 -0.578125l2.453125 -2.4375l1.84375 0.65625l-2.53125 2.28125l0.328125 -0.890625q0.28125 0.203125 0.53125 0.390625q0.25 0.171875 0.6875 0.296875q0.4375 0.125 1.203125 0.234375q0.765625 0.09375 2.046875 0.203125q1.734375 0.125 2.78125 0.609375q1.0625 0.46875 1.53125 1.28125q0.46875 0.8125 0.46875 1.9375q0 1.078125 -0.59375 2.046875q-0.59375 0.984375 -1.84375 1.609375q-1.234375 0.640625 -3.1875 0.640625zm-0.03125 -9.875q-1.59375 0 -2.71875 -0.609375q-1.125 -0.609375 -1.71875 -1.625q-0.578125 -1.03125 -0.578125 -2.296875q0 -1.265625 0.59375 -2.28125q0.609375 -1.015625 1.71875 -1.625q1.109375 -0.625 2.703125 -0.625q1.609375 0 2.71875 0.625q1.109375 0.609375 1.6875 1.625q0.59375 1.015625 0.59375 2.28125q0 1.265625 -0.59375 2.296875q-0.578125 1.015625 -1.6875 1.625q-1.109375 0.609375 -2.71875 0.609375zm0 -1.75q1.375 0 2.15625 -0.703125q0.78125 -0.71875 0.78125 -2.078125q0 -1.34375 -0.78125 -2.046875q-0.78125 -0.71875 -2.15625 -0.71875q-1.328125 0 -2.15625 0.71875q-0.828125 0.703125 -0.828125 2.046875q0 1.359375 0.8125 2.078125q0.8125 0.703125 2.171875 0.703125zm2.078125 -5.21875l-0.625 -1.796875l5.21875 0l0 1.59375l-4.59375 0.203125zm12.142059 11.265625q-1.78125 0 -3.171875 -0.828125q-1.390625 -0.84375 -2.1875 -2.34375q-0.78125 -1.5 -0.78125 -3.5q0 -2.03125 0.765625 -3.515625q0.78125 -1.5 2.1875 -2.328125q1.40625 -0.84375 3.234375 -0.84375q1.875 0 3.1875 0.84375q1.3125 0.828125 2.015625 2.1875q0.703125 1.34375 0.703125 2.96875q0 0.25 0 0.53125q0 0.28125 -0.03125 0.625l-10.453125 0l0 -1.640625l8.375 0q-0.078125 -1.75 -1.15625 -2.734375q-1.078125 -0.984375 -2.6875 -0.984375q-1.0625 0 -2.0 0.5q-0.9375 0.484375 -1.5 1.4375q-0.5625 0.9375 -0.5625 2.359375l0 0.71875q0 1.5625 0.5625 2.625q0.578125 1.0625 1.5 1.59375q0.9375 0.53125 2.0 0.53125q1.34375 0 2.203125 -0.59375q0.875 -0.59375 1.28125 -1.625l2.109375 0q-0.328125 1.15625 -1.09375 2.0625q-0.75 0.890625 -1.890625 1.421875q-1.125 0.53125 -2.609375 0.53125zm13.589539 0q-1.5625 0 -2.75 -0.53125q-1.1875 -0.53125 -1.890625 -1.46875q-0.703125 -0.953125 -0.84375 -2.25l2.171875 0q0.125 0.65625 0.53125 1.21875q0.40625 0.5625 1.09375 0.90625q0.703125 0.328125 1.71875 0.328125q0.890625 0 1.46875 -0.265625q0.578125 -0.265625 0.875 -0.71875q0.296875 -0.453125 0.296875 -0.984375q0 -0.78125 -0.375 -1.1875q-0.359375 -0.40625 -1.078125 -0.640625q-0.703125 -0.25 -1.71875 -0.421875q-0.828125 -0.15625 -1.640625 -0.40625q-0.8125 -0.25 -1.453125 -0.671875q-0.625 -0.421875 -1.0 -1.03125q-0.359375 -0.609375 -0.359375 -1.5q0 -1.078125 0.5625 -1.921875q0.578125 -0.859375 1.609375 -1.328125q1.046875 -0.484375 2.4375 -0.484375q2.046875 0 3.3125 0.984375q1.265625 0.984375 1.5 2.859375l-2.109375 0q-0.125 -0.96875 -0.828125 -1.5q-0.6875 -0.546875 -1.90625 -0.546875q-1.1875 0 -1.8125 0.484375q-0.609375 0.46875 -0.609375 1.265625q0 0.5 0.328125 0.890625q0.34375 0.390625 1.03125 0.671875q0.6875 0.28125 1.640625 0.453125q1.265625 0.234375 2.296875 0.609375q1.046875 0.375 1.6875 1.125q0.65625 0.75 0.65625 2.125q0 1.1875 -0.59375 2.078125q-0.59375 0.875 -1.6875 1.375q-1.09375 0.484375 -2.5625 0.484375zm14.842651 -0.296875l0 -12.765625l2.140625 0l0 12.765625l-2.140625 0zm1.078125 -15.46875q-0.640625 0 -1.0625 -0.421875q-0.40625 -0.421875 -0.40625 -1.046875q0 -0.640625 0.40625 -1.03125q0.421875 -0.390625 1.0625 -0.390625q0.59375 0 1.03125 0.390625q0.4375 0.390625 0.4375 1.03125q0 0.625 -0.4375 1.046875q-0.4375 0.421875 -1.03125 0.421875zm4.797516 15.46875l0 -12.765625l1.9375 0l0.09375 2.234375l0 0q0.609375 -1.203125 1.734375 -1.859375q1.125 -0.671875 2.578125 -0.671875q1.484375 0 2.578125 0.59375q1.09375 0.59375 1.703125 1.796875q0.609375 1.203125 0.609375 3.046875l0 7.625l-2.140625 0l0 -7.390625q0 -1.9375 -0.84375 -2.890625q-0.84375 -0.96875 -2.390625 -0.96875q-1.0625 0 -1.90625 0.53125q-0.828125 0.515625 -1.328125 1.5q-0.484375 0.96875 -0.484375 2.40625l0 6.8125l-2.140625 0zm26.29129 0q-1.140625 0 -1.984375 -0.34375q-0.828125 -0.359375 -1.265625 -1.203125q-0.4375 -0.859375 -0.4375 -2.296875l0 -7.125l-2.234375 0l0 -1.796875l2.234375 0l0.28125 -3.09375l1.84375 0l0 3.09375l3.703125 0l0 1.796875l-3.703125 0l0 7.125q0 1.1875 0.484375 1.609375q0.484375 0.40625 1.6875 0.40625l1.375 0l0 1.828125l-1.984375 0zm4.913025 0l0 -18.234375l2.140625 0l0 7.625l0 0q0.625 -1.140625 1.78125 -1.796875q1.15625 -0.65625 2.515625 -0.65625q1.46875 0 2.5625 0.59375q1.09375 0.59375 1.671875 1.8125q0.578125 1.203125 0.578125 3.0625l0 7.59375l-2.09375 0l0 -7.375q0 -1.921875 -0.8125 -2.890625q-0.8125 -0.984375 -2.359375 -0.984375q-1.09375 0 -1.96875 0.53125q-0.875 0.53125 -1.375 1.53125q-0.5 0.984375 -0.5 2.421875l0 6.765625l-2.140625 0zm20.173065 0.296875q-1.78125 0 -3.171875 -0.828125q-1.390625 -0.84375 -2.1875 -2.34375q-0.78125 -1.5 -0.78125 -3.5q0 -2.03125 0.765625 -3.515625q0.78125 -1.5 2.1875 -2.328125q1.40625 -0.84375 3.234375 -0.84375q1.875 0 3.1875 0.84375q1.3125 0.828125 2.015625 2.1875q0.703125 1.34375 0.703125 2.96875q0 0.25 0 0.53125q0 0.28125 -0.03125 0.625l-10.453125 0l0 -1.640625l8.375 0q-0.078125 -1.75 -1.15625 -2.734375q-1.078125 -0.984375 -2.6875 -0.984375q-1.0625 0 -2.0 0.5q-0.9375 0.484375 -1.5 1.4375q-0.5625 0.9375 -0.5625 2.359375l0 0.71875q0 1.5625 0.5625 2.625q0.578125 1.0625 1.5 1.59375q0.9375 0.53125 2.0 0.53125q1.34375 0 2.203125 -0.59375q0.875 -0.59375 1.28125 -1.625l2.109375 0q-0.328125 1.15625 -1.09375 2.0625q-0.75 0.890625 -1.890625 1.421875q-1.125 0.53125 -2.609375 0.53125zm21.170563 0q-1.84375 0 -3.25 -0.859375q-1.40625 -0.875 -2.171875 -2.390625q-0.765625 -1.53125 -0.765625 -3.453125q0 -1.921875 0.765625 -3.421875q0.765625 -1.515625 2.171875 -2.375q1.40625 -0.859375 3.28125 -0.859375q1.53125 0 2.703125 0.640625q1.1875 0.625 1.84375 1.765625l0 -7.578125l2.140625 0l0 18.234375l-1.9375 0l-0.203125 -2.109375l0 0q-0.40625 0.640625 -1.046875 1.1875q-0.625 0.546875 -1.5 0.890625q-0.859375 0.328125 -2.03125 0.328125zm0.234375 -1.84375q1.265625 0 2.21875 -0.609375q0.96875 -0.609375 1.5 -1.671875q0.546875 -1.078125 0.546875 -2.546875q0 -1.453125 -0.546875 -2.53125q-0.53125 -1.09375 -1.5 -1.703125q-0.953125 -0.609375 -2.21875 -0.609375q-1.21875 0 -2.203125 0.609375q-0.96875 0.609375 -1.5 1.703125q-0.53125 1.078125 -0.53125 2.53125q0 1.46875 0.53125 2.546875q0.53125 1.0625 1.5 1.671875q0.984375 0.609375 2.203125 0.609375zm14.146362 1.84375q-1.546875 0 -2.578125 -0.53125q-1.03125 -0.546875 -1.546875 -1.4375q-0.5 -0.90625 -0.5 -1.96875q0 -1.296875 0.671875 -2.1875q0.671875 -0.90625 1.890625 -1.375q1.234375 -0.46875 2.90625 -0.46875l3.359375 0q0 -1.1875 -0.375 -1.984375q-0.359375 -0.796875 -1.0625 -1.203125q-0.6875 -0.40625 -1.71875 -0.40625q-1.21875 0 -2.109375 0.609375q-0.890625 0.59375 -1.078125 1.796875l-2.1875 0q0.15625 -1.375 0.921875 -2.296875q0.78125 -0.921875 1.96875 -1.40625q1.1875 -0.5 2.484375 -0.5q1.765625 0 2.9375 0.640625q1.1875 0.640625 1.765625 1.796875q0.59375 1.15625 0.59375 2.71875l0 7.90625l-1.90625 0l-0.125 -2.25l0 0q-0.25 0.53125 -0.65625 1.0q-0.390625 0.46875 -0.90625 0.8125q-0.515625 0.34375 -1.203125 0.53125q-0.6875 0.203125 -1.546875 0.203125zm0.328125 -1.796875q0.890625 0 1.609375 -0.359375q0.734375 -0.375 1.234375 -1.015625q0.5 -0.640625 0.765625 -1.421875q0.265625 -0.796875 0.265625 -1.65625l0 -0.078125l-3.1875 0q-1.234375 0 -2.0 0.296875q-0.765625 0.28125 -1.09375 0.8125q-0.328125 0.515625 -0.328125 1.171875q0 0.6875 0.3125 1.203125q0.328125 0.5 0.9375 0.78125q0.625 0.265625 1.484375 0.265625zm13.955109 1.5q-1.140625 0 -1.984375 -0.34375q-0.828125 -0.359375 -1.265625 -1.203125q-0.4375 -0.859375 -0.4375 -2.296875l0 -7.125l-2.234375 0l0 -1.796875l2.234375 0l0.28125 -3.09375l1.84375 0l0 3.09375l3.703125 0l0 1.796875l-3.703125 0l0 7.125q0 1.1875 0.484375 1.609375q0.484375 0.40625 1.6875 0.40625l1.375 0l0 1.828125l-1.984375 0zm9.069244 0.296875q-1.546875 0 -2.578125 -0.53125q-1.03125 -0.546875 -1.546875 -1.4375q-0.5 -0.90625 -0.5 -1.96875q0 -1.296875 0.671875 -2.1875q0.671875 -0.90625 1.890625 -1.375q1.234375 -0.46875 2.90625 -0.46875l3.359375 0q0 -1.1875 -0.375 -1.984375q-0.359375 -0.796875 -1.0625 -1.203125q-0.6875 -0.40625 -1.71875 -0.40625q-1.21875 0 -2.109375 0.609375q-0.890625 0.59375 -1.078125 1.796875l-2.1875 0q0.15625 -1.375 0.921875 -2.296875q0.78125 -0.921875 1.96875 -1.40625q1.1875 -0.5 2.484375 -0.5q1.765625 0 2.9375 0.640625q1.1875 0.640625 1.765625 1.796875q0.59375 1.15625 0.59375 2.71875l0 7.90625l-1.90625 0l-0.125 -2.25l0 0q-0.25 0.53125 -0.65625 1.0q-0.390625 0.46875 -0.90625 0.8125q-0.515625 0.34375 -1.203125 0.53125q-0.6875 0.203125 -1.546875 0.203125zm0.328125 -1.796875q0.890625 0 1.609375 -0.359375q0.734375 -0.375 1.234375 -1.015625q0.5 -0.640625 0.765625 -1.421875q0.265625 -0.796875 0.265625 -1.65625l0 -0.078125l-3.1875 0q-1.234375 0 -2.0 0.296875q-0.765625 0.28125 -1.09375 0.8125q-0.328125 0.515625 -0.328125 1.171875q0 0.6875 0.3125 1.203125q0.328125 0.5 0.9375 0.78125q0.625 0.265625 1.484375 0.265625zm14.106628 1.796875q-1.5625 0 -2.75 -0.53125q-1.1875 -0.53125 -1.890625 -1.46875q-0.703125 -0.953125 -0.84375 -2.25l2.171875 0q0.125 0.65625 0.53125 1.21875q0.40625 0.5625 1.09375 0.90625q0.703125 0.328125 1.71875 0.328125q0.890625 0 1.46875 -0.265625q0.578125 -0.265625 0.875 -0.71875q0.296875 -0.453125 0.296875 -0.984375q0 -0.78125 -0.375 -1.1875q-0.359375 -0.40625 -1.078125 -0.640625q-0.703125 -0.25 -1.71875 -0.421875q-0.828125 -0.15625 -1.640625 -0.40625q-0.8125 -0.25 -1.453125 -0.671875q-0.625 -0.421875 -1.0 -1.03125q-0.359375 -0.609375 -0.359375 -1.5q0 -1.078125 0.5625 -1.921875q0.578125 -0.859375 1.609375 -1.328125q1.046875 -0.484375 2.4375 -0.484375q2.046875 0 3.3125 0.984375q1.265625 0.984375 1.5 2.859375l-2.109375 0q-0.125 -0.96875 -0.828125 -1.5q-0.6875 -0.546875 -1.90625 -0.546875q-1.1875 0 -1.8125 0.484375q-0.609375 0.46875 -0.609375 1.265625q0 0.5 0.328125 0.890625q0.34375 0.390625 1.03125 0.671875q0.6875 0.28125 1.640625 0.453125q1.265625 0.234375 2.296875 0.609375q1.046875 0.375 1.6875 1.125q0.65625 0.75 0.65625 2.125q0 1.1875 -0.59375 2.078125q-0.59375 0.875 -1.6875 1.375q-1.09375 0.484375 -2.5625 0.484375zm13.511627 0q-1.78125 0 -3.1719055 -0.828125q-1.390625 -0.84375 -2.1875 -2.34375q-0.78125 -1.5 -0.78125 -3.5q0 -2.03125 0.765625 -3.515625q0.78125 -1.5 2.1875 -2.328125q1.4062805 -0.84375 3.2344055 -0.84375q1.875 0 3.1875 0.84375q1.3125 0.828125 2.015625 2.1875q0.703125 1.34375 0.703125 2.96875q0 0.25 0 0.53125q0 0.28125 -0.03125 0.625l-10.4531555 0l0 -1.640625l8.3750305 0q-0.078125 -1.75 -1.15625 -2.734375q-1.078125 -0.984375 -2.6875 -0.984375q-1.0625 0 -2.0 0.5q-0.9375305 0.484375 -1.5000305 1.4375q-0.5625 0.9375 -0.5625 2.359375l0 0.71875q0 1.5625 0.5625 2.625q0.578125 1.0625 1.5000305 1.59375q0.9375 0.53125 2.0 0.53125q1.34375 0 2.203125 -0.59375q0.875 -0.59375 1.28125 -1.625l2.109375 0q-0.328125 1.15625 -1.09375 2.0625q-0.75 0.890625 -1.890625 1.421875q-1.125 0.53125 -2.609375 0.53125zm13.3619995 -0.296875q-1.140625 0 -1.984375 -0.34375q-0.828125 -0.359375 -1.265625 -1.203125q-0.4375 -0.859375 -0.4375 -2.296875l0 -7.125l-2.234375 0l0 -1.796875l2.234375 0l0.28125 -3.09375l1.84375 0l0 3.09375l3.703125 0l0 1.796875l-3.703125 0l0 7.125q0 1.1875 0.484375 1.609375q0.484375 0.40625 1.6875 0.40625l1.375 0l0 1.828125l-1.984375 0z" fill-rule="nonzero"/><path fill="#000000" fill-opacity="0.0" d="m20.721785 62.27559l900.8819 0l0 67.779526l-900.8819 0z" fill-rule="evenodd"/><path fill="#005088" d="m37.08116 80.38474l-4.96875 -0.59375l0 -2.84375l14.359375 0l5.46875 19.78125l1.28125 5.375l1.109375 -5.375l5.421875 -19.78125l14.21875 0l0 2.84375l-5.015625 0.59375l3.6875 27.46875l3.71875 0.5l0 2.765625l-14.671875 0l0 -2.765625l4.046875 -0.453125l-2.015625 -20.15625l-0.875 -8.40625l-1.703125 7.078125l-6.671875 23.28125l-4.875 0l-6.8125 -22.078125l-2.34375 -8.28125l-0.6875 8.40625l-1.75 20.15625l4.640625 0.453125l0 2.765625l-12.781252 0l0 -2.765625l3.859377 -0.453125l3.359375 -27.515625zm41.485123 18.0q0 -4.328125 1.71875 -7.359375q1.734375 -3.046875 4.625 -4.578125q2.90625 -1.546875 6.3125 -1.546875q5.796875 0 8.9375 3.5625q3.15625 3.5625 3.15625 9.6875q0 4.359375 -1.71875 7.421875q-1.71875 3.0625 -4.59375 4.5625q-2.875 1.484375 -6.328125 1.484375q-5.75 0 -8.9375 -3.5625q-3.171875 -3.5625 -3.171875 -9.671875zm12.46875 10.25q5.203125 0 5.203125 -10.03125q0 -5.234375 -1.25 -7.96875q-1.234375 -2.75 -4.046875 -2.75q-5.328125 0 -5.328125 10.03125q0 5.25 1.3125 7.984375q1.3125 2.734375 4.109375 2.734375zm24.19963 2.890625q-2.890625 0 -4.28125 -1.328125q-1.375 -1.328125 -1.375 -4.234375l0 -16.875l-2.984375 0l0 -2.390625q0.359375 -0.140625 1.328125 -0.484375q0.96875 -0.34375 1.46875 -0.578125q0.78125 -0.59375 1.34375 -2.0625q0.40625 -0.96875 1.515625 -4.796875l3.671875 0l0.1875 6.765625l7.03125 0l0 3.546875l-6.984375 0l0 12.921875q0 2.578125 0.140625 3.640625q0.140625 1.046875 0.59375 1.359375q0.453125 0.296875 1.609375 0.296875q1.15625 0 2.390625 -0.25q1.25 -0.265625 2.078125 -0.625l0.875 2.578125q-1.296875 0.953125 -3.78125 1.734375q-2.484375 0.78125 -4.828125 0.78125zm16.518005 -30.171875q-1.65625 0 -2.625 -0.953125q-0.96875 -0.96875 -0.96875 -2.5q0 -1.734375 1.09375 -2.890625q1.109375 -1.15625 2.953125 -1.15625q1.84375 0 2.8125 1.0q0.96875 0.984375 0.96875 2.453125q0 1.84375 -1.109375 2.953125q-1.109375 1.09375 -3.078125 1.09375l-0.046875 0zm-2.4375 8.5625l-3.265625 -0.875l0 -3.078125l8.421875 -1.015625l0.078125 0l1.296875 0.921875l0 22.125l3.078125 0.359375l0 2.765625l-12.828125 0l0 -2.765625l3.21875 -0.40625l0 -18.03125zm10.571381 -4.375l12.15625 0l0 2.671875l-3.046875 0.59375l4.1875 12.515625l1.46875 4.875l1.25 -4.734375l4.09375 -12.65625l-2.90625 -0.59375l0 -2.671875l10.125 0l0 2.671875l-2.390625 0.59375l-8.5625 22.6875l-5.328125 0l-9.15625 -22.6875l-1.890625 -0.59375l0 -2.671875zm28.109756 18.40625q0 -4.1875 4.203125 -6.296875q4.21875 -2.125 10.890625 -2.171875l0 -1.0625q0 -1.875 -0.390625 -2.9375q-0.390625 -1.0625 -1.4375 -1.59375q-1.03125 -0.53125 -3.0 -0.53125q-2.265625 0 -4.0625 0.578125q-1.78125 0.578125 -3.71875 1.5l-1.421875 -2.9375q0.6875 -0.609375 2.3125 -1.4375q1.640625 -0.828125 3.890625 -1.4375q2.265625 -0.625 4.65625 -0.625q3.53125 0 5.53125 0.921875q2.0 0.921875 2.875 2.953125q0.875 2.015625 0.875 5.40625l0 14.078125l2.484375 0l0 2.578125q-0.921875 0.234375 -2.625 0.453125q-1.6875 0.234375 -2.984375 0.234375q-1.5625 0 -2.09375 -0.453125q-0.53125 -0.453125 -0.53125 -1.890625l0 -1.234375q-1.234375 1.375 -3.21875 2.484375q-1.96875 1.09375 -4.453125 1.09375q-2.125 0 -3.890625 -0.890625q-1.765625 -0.890625 -2.828125 -2.609375q-1.0625 -1.734375 -1.0625 -4.171875zm10.71875 3.859375q0.96875 0 2.203125 -0.578125q1.25 -0.578125 2.171875 -1.40625l0 -7.53125q-4.140625 0 -6.1875 1.40625q-2.046875 1.390625 -2.046875 3.609375q0 2.203125 1.03125 3.359375q1.03125 1.140625 2.828125 1.140625zm23.55162 3.71875q-2.890625 0 -4.28125 -1.328125q-1.375 -1.328125 -1.375 -4.234375l0 -16.875l-2.984375 0l0 -2.390625q0.359375 -0.140625 1.328125 -0.484375q0.96875 -0.34375 1.46875 -0.578125q0.78125 -0.59375 1.34375 -2.0625q0.40625 -0.96875 1.515625 -4.796875l3.671875 0l0.1875 6.765625l7.03125 0l0 3.546875l-6.984375 0l0 12.921875q0 2.578125 0.140625 3.640625q0.140625 1.046875 0.59375 1.359375q0.453125 0.296875 1.609375 0.296875q1.15625 0 2.390625 -0.25q1.25 -0.265625 2.078125 -0.625l0.875 2.578125q-1.296875 0.953125 -3.78125 1.734375q-2.484375 0.78125 -4.828125 0.78125zm16.518005 -30.171875q-1.65625 0 -2.625 -0.953125q-0.96875 -0.96875 -0.96875 -2.5q0 -1.734375 1.09375 -2.890625q1.109375 -1.15625 2.953125 -1.15625q1.84375 0 2.8125 1.0q0.96875 0.984375 0.96875 2.453125q0 1.84375 -1.109375 2.953125q-1.109375 1.09375 -3.078125 1.09375l-0.046875 0zm-2.4375 8.5625l-3.265625 -0.875l0 -3.078125l8.421875 -1.015625l0.078125 0l1.296875 0.921875l0 22.125l3.078125 0.359375l0 2.765625l-12.828125 0l0 -2.765625l3.21875 -0.40625l0 -18.03125zm12.915131 8.46875q0 -4.328125 1.71875 -7.359375q1.734375 -3.046875 4.625 -4.578125q2.90625 -1.546875 6.3125 -1.546875q5.796875 0 8.9375 3.5625q3.15625 3.5625 3.15625 9.6875q0 4.359375 -1.71875 7.421875q-1.71875 3.0625 -4.59375 4.5625q-2.875 1.484375 -6.328125 1.484375q-5.75 0 -8.9375 -3.5625q-3.171875 -3.5625 -3.171875 -9.671875zm12.46875 10.25q5.203125 0 5.203125 -10.03125q0 -5.234375 -1.25 -7.96875q-1.234375 -2.75 -4.046875 -2.75q-5.328125 0 -5.328125 10.03125q0 5.25 1.3125 7.984375q1.3125 2.734375 4.109375 2.734375zm19.04338 -18.71875l-2.9375 -0.828125l0 -3.171875l7.640625 -0.96875l0.125 0l1.15625 0.921875l0 1.796875l-0.046875 1.09375q1.609375 -1.515625 4.1875 -2.609375q2.578125 -1.109375 5.203125 -1.109375q2.796875 0 4.375 1.03125q1.59375 1.03125 2.28125 3.25q0.703125 2.203125 0.703125 5.96875l0 12.703125l2.796875 0.359375l0 2.765625l-11.859375 0l0 -2.765625l2.484375 -0.359375l0 -12.703125q0 -2.390625 -0.328125 -3.75q-0.3125 -1.359375 -1.171875 -1.96875q-0.84375 -0.625 -2.40625 -0.625q-2.625 0 -5.625 2.25l0 16.75l2.765625 0.40625l0 2.765625l-12.0 0l0 -2.765625l2.65625 -0.40625l0 -18.03125zm33.85724 17.4375q0.375 0.546875 1.6875 1.03125q1.3125 0.484375 2.640625 0.484375q2.15625 0 3.234375 -0.890625q1.09375 -0.90625 1.09375 -2.375q0 -1.515625 -1.34375 -2.453125q-1.328125 -0.953125 -4.5 -2.328125l-1.296875 -0.5625q-3.171875 -1.328125 -4.734375 -3.21875q-1.5625 -1.890625 -1.5625 -4.875q0 -2.0625 1.234375 -3.6875q1.25 -1.640625 3.5 -2.5625q2.265625 -0.921875 5.203125 -0.921875q2.15625 0 3.703125 0.28125q1.546875 0.265625 3.25 0.734375q0.90625 0.3125 1.375 0.359375l0 6.03125l-3.640625 0l-1.046875 -3.5q-0.28125 -0.453125 -1.25 -0.8125q-0.96875 -0.375 -2.203125 -0.375q-1.890625 0 -3.015625 0.8125q-1.125 0.796875 -1.125 2.21875q0 1.28125 0.78125 2.140625q0.78125 0.84375 1.703125 1.3125q0.921875 0.453125 3.40625 1.515625q2.484375 1.046875 4.109375 2.015625q1.640625 0.96875 2.71875 2.515625q1.078125 1.53125 1.078125 3.75q0 3.40625 -2.671875 5.515625q-2.65625 2.109375 -7.671875 2.109375q-2.359375 0 -4.21875 -0.421875q-1.859375 -0.40625 -4.296875 -1.09375l-1.015625 -0.3125l0 -6.078125l3.828125 0l1.046875 3.640625z" fill-rule="nonzero"/></g></svg>