<svg version="1.1" viewBox="0.0 0.0 960.0 540.0" fill="none" stroke="none" stroke-linecap="square" stroke-miterlimit="10" xmlns:xlink="http://www.w3.org/1999/xlink" xmlns="http://www.w3.org/2000/svg"><clipPath id="g31b98b85ded_0_88.0"><path d="m0 0l960.0 0l0 540.0l-960.0 0l0 -540.0z" clip-rule="nonzero"/></clipPath><g clip-path="url(#g31b98b85ded_0_88.0)"><path fill="#005088" d="m0 0l960.0 0l0 540.0l-960.0 0z" fill-rule="evenodd"/><path fill="#000000" fill-opacity="0.0" d="m102.3937 227.33595l755.21265 0l0 62.204727l-755.21265 0z" fill-rule="evenodd"/><path fill="#f3f0df" d="m151.75073 254.59583l-12.1875 5.921875l12.1875 6.015625l0 3.671875l-16.71875 -8.625l0 -2.078125l16.71875 -8.65625l0 3.75zm23.634537 0l-12.1875 5.921875l12.1875 6.015625l0 3.671875l-16.71875 -8.625l0 -2.078125l16.71875 -8.65625l0 3.75zm13.772934 14.4375l2.796875 -0.34375l0 -21.125l-2.65625 -0.5l0 -2.15625l5.125 0q0.671875 0 1.484375 -0.03125q0.8125 -0.03125 1.234375 -0.078125q1.84375 -0.140625 3.046875 -0.140625q3.625 0 5.8125 0.75q2.203125 0.734375 3.1875 2.265625q0.984375 1.515625 0.984375 3.984375q0 2.4375 -1.3125 4.53125q-1.296875 2.078125 -3.765625 2.84375q1.40625 0.609375 2.5 2.203125q1.109375 1.578125 2.34375 4.125q0.875 1.734375 1.34375 2.5q0.484375 0.75 0.953125 0.859375l1.15625 0.359375l0 2.078125l-6.0 0q-0.5625 0 -1.1875 -1.140625q-0.609375 -1.15625 -1.609375 -3.625q-1.15625 -2.90625 -2.015625 -4.53125q-0.84375 -1.625 -1.796875 -2.015625l-3.640625 0l0 8.84375l3.25 0.34375l0 2.125l-11.234375 0l0 -2.125zm11.234375 -11.328125q2.015625 0 3.140625 -1.453125q1.140625 -1.453125 1.140625 -4.34375q0 -2.578125 -1.125 -3.8125q-1.109375 -1.25 -3.828125 -1.25q-0.984375 0 -1.671875 0.09375q-0.6875 0.09375 -0.90625 0.09375l0 10.59375q0.421875 0.078125 2.046875 0.078125l1.203125 0zm23.362228 13.84375q-4.671875 0 -6.953125 -2.734375q-2.28125 -2.75 -2.28125 -7.484375q0 -3.171875 1.1875 -5.5q1.1875 -2.34375 3.34375 -3.578125q2.15625 -1.234375 4.984375 -1.234375q3.53125 0 5.4375 1.859375q1.90625 1.859375 1.96875 5.28125q0 2.328125 -0.28125 3.46875l-11.46875 0q0.140625 3.203125 1.515625 5.0q1.375 1.78125 3.921875 1.78125q1.375 0 2.84375 -0.453125q1.46875 -0.46875 2.3125 -1.109375l0.875 1.953125q-0.953125 1.015625 -3.09375 1.890625q-2.125 0.859375 -4.3125 0.859375zm2.75 -12.046875q0.0625 -0.984375 0.0625 -1.515625q0 -4.703125 -3.140625 -4.703125q-1.734375 0 -2.6875 1.375q-0.953125 1.375 -1.046875 4.84375l6.8125 0zm7.305481 1.9375q0 -3.03125 1.21875 -5.390625q1.21875 -2.375 3.5 -3.703125q2.28125 -1.328125 5.3125 -1.328125q1.421875 0 2.4375 0.21875q1.03125 0.203125 2.296875 0.5625l1.03125 0.28125l-0.21875 6.046875l-3.0625 0l-0.890625 -3.890625q-0.203125 -0.921875 -2.078125 -0.921875q-1.984375 0 -3.09375 1.734375q-1.109375 1.734375 -1.140625 5.40625q0 3.890625 1.328125 5.953125q1.34375 2.0625 3.578125 2.0625q2.6875 0 4.9375 -1.453125l0.8125 1.84375q-0.90625 0.984375 -2.796875 1.84375q-1.890625 0.84375 -4.09375 0.84375q-4.515625 0 -6.796875 -2.78125q-2.28125 -2.796875 -2.28125 -7.328125zm18.413437 4.203125q0 -3.203125 3.234375 -4.828125q3.234375 -1.625 8.34375 -1.671875l0 -0.8125q0 -1.4375 -0.296875 -2.25q-0.296875 -0.8125 -1.09375 -1.21875q-0.796875 -0.40625 -2.3125 -0.40625q-1.734375 0 -3.109375 0.4375q-1.375 0.4375 -2.859375 1.140625l-1.09375 -2.25q0.53125 -0.46875 1.78125 -1.09375q1.25 -0.640625 2.984375 -1.109375q1.734375 -0.484375 3.5625 -0.484375q2.734375 0 4.265625 0.703125q1.53125 0.703125 2.203125 2.265625q0.671875 1.546875 0.671875 4.15625l0 10.8125l1.90625 0l0 1.984375q-0.703125 0.171875 -2.015625 0.34375q-1.296875 0.1875 -2.296875 0.1875q-1.1875 0 -1.59375 -0.359375q-0.40625 -0.34375 -0.40625 -1.4375l0 -0.953125q-0.953125 1.046875 -2.484375 1.90625q-1.515625 0.84375 -3.421875 0.84375q-1.625 0 -2.984375 -0.6875q-1.359375 -0.6875 -2.171875 -2.015625q-0.8125 -1.328125 -0.8125 -3.203125zm8.234375 2.96875q0.734375 0 1.6875 -0.4375q0.953125 -0.4375 1.65625 -1.078125l0 -5.796875q-3.171875 0 -4.75 1.078125q-1.5625 1.078125 -1.5625 2.78125q0 1.6875 0.796875 2.578125q0.796875 0.875 2.171875 0.875zm31.683228 -7.90625q0 2.96875 -1.21875 5.4375q-1.21875 2.46875 -3.578125 3.9375q-2.34375 1.46875 -5.59375 1.46875q-0.703125 0 -1.46875 -0.125q-0.75 -0.125 -1.203125 -0.296875l0.09375 2.921875l0 3.21875l3.296875 0.421875l0 2.015625l-10.5 0l0 -2.015625l2.296875 -0.421875l0 -22.390625l-2.296875 -0.640625l0 -2.4375l5.828125 -0.75l0.078125 0l0.875 0.71875l0 1.96875q0.890625 -1.09375 2.40625 -1.90625q1.515625 -0.8125 3.3125 -0.8125q3.359375 0 5.515625 2.390625q2.15625 2.375 2.15625 7.296875zm-9.5 -6.75q-1.0625 0 -2.015625 0.46875q-0.953125 0.453125 -1.453125 1.015625l0 13.109375q0.25 0.34375 1.0 0.59375q0.765625 0.25 1.6875 0.25q2.296875 0 3.65625 -2.0q1.359375 -2.0 1.359375 -6.265625q0 -3.609375 -1.171875 -5.390625q-1.15625 -1.78125 -3.0625 -1.78125zm20.774902 7.421875q0 -3.328125 1.3125 -5.65625q1.328125 -2.328125 3.546875 -3.515625q2.234375 -1.1875 4.859375 -1.1875q4.4375 0 6.859375 2.75q2.421875 2.734375 2.421875 7.421875q0 3.359375 -1.328125 5.71875q-1.3125 2.34375 -3.53125 3.5q-2.203125 1.140625 -4.859375 1.140625q-4.40625 0 -6.84375 -2.734375q-2.4375 -2.75 -2.4375 -7.4375zm9.5625 7.875q4.0 0 4.0 -7.703125q0 -4.03125 -0.953125 -6.125q-0.953125 -2.109375 -3.109375 -2.109375q-4.09375 0 -4.09375 7.703125q0 4.03125 1.0 6.140625q1.015625 2.09375 3.15625 2.09375zm15.096405 -14.984375l-2.96875 0l0 -1.96875l2.96875 -0.71875l0 -1.546875q0 -2.296875 1.21875 -4.203125q1.21875 -1.90625 3.265625 -3.015625q2.046875 -1.125 4.34375 -1.125q1.203125 0 2.265625 0.359375l0 4.515625q-0.359375 -0.34375 -1.40625 -0.6875q-1.03125 -0.359375 -2.171875 -0.359375q-1.375 0 -1.953125 0.6875q-0.578125 0.6875 -0.578125 2.34375l0 3.0l4.484375 0l0 2.71875l-4.484375 0l0 14.484375l3.703125 0.28125l0 2.125l-11.484375 0l0 -2.125l2.796875 -0.3125l0 -14.453125zm29.255402 17.28125q-1.921875 0 -3.4375 -0.328125q-1.515625 -0.3125 -3.390625 -0.84375q-1.234375 -0.34375 -1.65625 -0.390625l0.3125 -6.53125l2.859375 0l0.78125 4.5625q0.46875 0.484375 1.640625 0.875q1.1875 0.390625 2.703125 0.390625q2.375 0 3.546875 -1.03125q1.1875 -1.046875 1.1875 -2.921875q0 -1.234375 -0.703125 -2.140625q-0.703125 -0.90625 -1.953125 -1.625q-1.234375 -0.71875 -3.375 -1.671875q-2.9375 -1.34375 -4.875 -3.203125q-1.921875 -1.859375 -1.921875 -5.03125q0 -1.984375 1.03125 -3.578125q1.03125 -1.609375 3.0625 -2.546875q2.03125 -0.9375 4.953125 -0.9375q1.734375 0 3.0625 0.25q1.328125 0.234375 2.875 0.671875q0.921875 0.234375 1.375 0.3125l-0.203125 6.1875l-2.828125 0l-0.75 -4.359375q-0.3125 -0.3125 -1.265625 -0.609375q-0.953125 -0.296875 -2.125 -0.296875q-2.109375 0 -3.1875 0.96875q-1.078125 0.96875 -1.078125 2.59375q0 1.3125 0.78125 2.265625q0.796875 0.953125 1.921875 1.609375q1.140625 0.640625 3.578125 1.84375q1.984375 0.953125 3.390625 1.875q1.421875 0.921875 2.4375 2.390625q1.03125 1.46875 1.03125 3.4375q0 1.953125 -0.984375 3.71875q-0.96875 1.765625 -3.171875 2.9375q-2.203125 1.15625 -5.625 1.15625zm18.334106 -0.078125q-2.234375 0 -3.296875 -1.015625q-1.0625 -1.03125 -1.0625 -3.25l0 -12.96875l-2.28125 0l0 -1.84375q0.28125 -0.09375 1.015625 -0.359375q0.75 -0.265625 1.125 -0.453125q0.609375 -0.453125 1.03125 -1.578125q0.3125 -0.75 1.171875 -3.671875l2.828125 0l0.140625 5.1875l5.390625 0l0 2.71875l-5.359375 0l0 9.921875q0 1.984375 0.09375 2.796875q0.109375 0.8125 0.46875 1.046875q0.359375 0.21875 1.234375 0.21875q0.890625 0 1.84375 -0.1875q0.953125 -0.203125 1.578125 -0.484375l0.671875 1.984375q-0.984375 0.734375 -2.890625 1.34375q-1.90625 0.59375 -3.703125 0.59375zm8.085754 -5.828125q0 -3.203125 3.234375 -4.828125q3.234375 -1.625 8.34375 -1.671875l0 -0.8125q0 -1.4375 -0.296875 -2.25q-0.296875 -0.8125 -1.09375 -1.21875q-0.796875 -0.40625 -2.3125 -0.40625q-1.734375 0 -3.109375 0.4375q-1.375 0.4375 -2.859375 1.140625l-1.09375 -2.25q0.53125 -0.46875 1.78125 -1.09375q1.25 -0.640625 2.984375 -1.109375q1.734375 -0.484375 3.5625 -0.484375q2.734375 0 4.265625 0.703125q1.53125 0.703125 2.203125 2.265625q0.671875 1.546875 0.671875 4.15625l0 10.8125l1.90625 0l0 1.984375q-0.703125 0.171875 -2.015625 0.34375q-1.296875 0.1875 -2.296875 0.1875q-1.1875 0 -1.59375 -0.359375q-0.40625 -0.34375 -0.40625 -1.4375l0 -0.953125q-0.953125 1.046875 -2.484375 1.90625q-1.515625 0.84375 -3.421875 0.84375q-1.625 0 -2.984375 -0.6875q-1.359375 -0.6875 -2.171875 -2.015625q-0.8125 -1.328125 -0.8125 -3.203125zm8.234375 2.96875q0.734375 0 1.6875 -0.4375q0.953125 -0.4375 1.65625 -1.078125l0 -5.796875q-3.171875 0 -4.75 1.078125q-1.5625 1.078125 -1.5625 2.78125q0 1.6875 0.796875 2.578125q0.796875 0.875 2.171875 0.875zm18.089508 2.859375q-2.234375 0 -3.296875 -1.015625q-1.0625 -1.03125 -1.0625 -3.25l0 -12.96875l-2.28125 0l0 -1.84375q0.28125 -0.09375 1.015625 -0.359375q0.75 -0.265625 1.125 -0.453125q0.609375 -0.453125 1.03125 -1.578125q0.3125 -0.75 1.171875 -3.671875l2.828125 0l0.140625 5.1875l5.390625 0l0 2.71875l-5.359375 0l0 9.921875q0 1.984375 0.09375 2.796875q0.109375 0.8125 0.46875 1.046875q0.359375 0.21875 1.234375 0.21875q0.890625 0 1.84375 -0.1875q0.953125 -0.203125 1.578125 -0.484375l0.671875 1.984375q-0.984375 0.734375 -2.890625 1.34375q-1.90625 0.59375 -3.703125 0.59375zm24.398254 0.046875q-1.15625 0 -1.6875 -0.5q-0.53125 -0.5 -0.53125 -1.484375l0 -0.953125q-0.953125 1.171875 -2.6875 2.078125q-1.734375 0.890625 -3.453125 0.890625q-3.390625 0 -4.84375 -1.75q-1.453125 -1.75 -1.453125 -5.78125l0 -9.953125l-1.765625 -0.5l0 -2.015625l6.0 -0.453125l0.046875 0l0.703125 0.484375l0 12.4375q0 2.578125 0.625 3.609375q0.640625 1.015625 2.375 1.015625q2.09375 0 3.890625 -1.625l0 -12.953125l-2.375 -0.53125l0 -1.984375l6.40625 -0.453125l0.0625 0l0.84375 0.484375l0 17.390625l1.984375 0l-0.03125 2.015625q-0.140625 0.03125 -1.3125 0.28125q-1.171875 0.25 -2.796875 0.25zm10.574707 -3.25q0.28125 0.421875 1.28125 0.796875q1.015625 0.359375 2.03125 0.359375q1.671875 0 2.5 -0.6875q0.828125 -0.6875 0.828125 -1.8125q0 -1.171875 -1.03125 -1.890625q-1.015625 -0.734375 -3.453125 -1.78125l-1.0 -0.4375q-2.4375 -1.015625 -3.640625 -2.46875q-1.1875 -1.453125 -1.1875 -3.75q0 -1.578125 0.953125 -2.828125q0.953125 -1.265625 2.671875 -1.96875q1.734375 -0.703125 4.0 -0.703125q1.65625 0 2.84375 0.21875q1.1875 0.203125 2.484375 0.546875q0.71875 0.25 1.0625 0.296875l0 4.625l-2.78125 0l-0.8125 -2.6875q-0.21875 -0.359375 -0.96875 -0.640625q-0.734375 -0.28125 -1.6875 -0.28125q-1.453125 0 -2.3125 0.625q-0.859375 0.609375 -0.859375 1.703125q0 1.0 0.59375 1.65625q0.59375 0.640625 1.296875 1.0q0.71875 0.359375 2.625 1.171875q1.90625 0.8125 3.15625 1.5625q1.265625 0.734375 2.09375 1.921875q0.828125 1.171875 0.828125 2.875q0 2.609375 -2.046875 4.234375q-2.046875 1.625 -5.90625 1.625q-1.796875 0 -3.234375 -0.328125q-1.421875 -0.3125 -3.296875 -0.84375l-0.78125 -0.25l0 -4.65625l2.9375 0l0.8125 2.796875zm34.786224 3.171875q-5.359375 0 -7.984375 -2.6875q-2.609375 -2.6875 -2.609375 -8.4375l0 -12.75l-2.328125 -0.46875l0 -2.1875l10.671875 0l0 2.1875l-3.0 0.5l0 13.171875q0 8.40625 5.96875 8.40625q2.921875 0 4.328125 -2.171875q1.421875 -2.171875 1.421875 -6.09375l0 -13.3125l-3.03125 -0.5l0 -2.1875l8.828125 0l0 2.1875l-2.40625 0.46875l0 13.0625q0 5.515625 -2.671875 8.171875q-2.65625 2.640625 -7.1875 2.640625zm33.78006 -10.734375q0 2.96875 -1.21875 5.4375q-1.21875 2.46875 -3.578125 3.9375q-2.34375 1.46875 -5.59375 1.46875q-0.703125 0 -1.46875 -0.125q-0.75 -0.125 -1.203125 -0.296875l0.09375 2.921875l0 3.21875l3.296875 0.421875l0 2.015625l-10.5 0l0 -2.015625l2.296875 -0.421875l0 -22.390625l-2.296875 -0.640625l0 -2.4375l5.828125 -0.75l0.078125 0l0.875 0.71875l0 1.96875q0.890625 -1.09375 2.40625 -1.90625q1.515625 -0.8125 3.3125 -0.8125q3.359375 0 5.515625 2.390625q2.15625 2.375 2.15625 7.296875zm-9.5 -6.75q-1.0625 0 -2.015625 0.46875q-0.953125 0.453125 -1.453125 1.015625l0 13.109375q0.25 0.34375 1.0 0.59375q0.765625 0.25 1.6875 0.25q2.296875 0 3.65625 -2.0q1.359375 -2.0 1.359375 -6.265625q0 -3.609375 -1.171875 -5.390625q-1.15625 -1.78125 -3.0625 -1.78125zm19.7771 17.59375q-2.1875 0 -3.921875 -1.046875q-1.71875 -1.046875 -2.75 -3.234375q-1.03125 -2.1875 -1.03125 -5.46875q0 -2.96875 1.21875 -5.421875q1.21875 -2.453125 3.578125 -3.90625q2.375 -1.453125 5.703125 -1.453125q1.34375 0 2.546875 0.28125l0 -5.96875l-3.46875 -0.484375l0 -1.953125l7.28125 -0.703125l0.109375 0l0.984375 0.734375l0 26.078125l1.90625 0l0 2.015625q-2.546875 0.53125 -4.203125 0.53125q-1.125 0 -1.609375 -0.375q-0.46875 -0.375 -0.46875 -1.46875l0 -0.984375q-0.921875 1.234375 -2.515625 2.03125q-1.59375 0.796875 -3.359375 0.796875zm1.84375 -2.9375q1.15625 0 2.0625 -0.46875q0.90625 -0.484375 1.4375 -1.15625l0 -12.859375q-0.25 -0.34375 -1.046875 -0.59375q-0.796875 -0.25 -1.71875 -0.25q-2.25 0 -3.609375 1.96875q-1.359375 1.953125 -1.359375 6.265625q0 3.59375 1.15625 5.34375q1.171875 1.75 3.078125 1.75zm12.5060425 -2.96875q0 -3.203125 3.234375 -4.828125q3.234375 -1.625 8.34375 -1.671875l0 -0.8125q0 -1.4375 -0.296875 -2.25q-0.296875 -0.8125 -1.09375 -1.21875q-0.796875 -0.40625 -2.3125 -0.40625q-1.734375 0 -3.109375 0.4375q-1.375 0.4375 -2.859375 1.140625l-1.09375 -2.25q0.53125 -0.46875 1.78125 -1.09375q1.25 -0.640625 2.984375 -1.109375q1.734375 -0.484375 3.5625 -0.484375q2.734375 0 4.265625 0.703125q1.53125 0.703125 2.203125 2.265625q0.671875 1.546875 0.671875 4.15625l0 10.8125l1.90625 0l0 1.984375q-0.703125 0.171875 -2.015625 0.34375q-1.296875 0.1875 -2.296875 0.1875q-1.1875 0 -1.59375 -0.359375q-0.40625 -0.34375 -0.40625 -1.4375l0 -0.953125q-0.953125 1.046875 -2.484375 1.90625q-1.515625 0.84375 -3.421875 0.84375q-1.625 0 -2.984375 -0.6875q-1.359375 -0.6875 -2.171875 -2.015625q-0.8125 -1.328125 -0.8125 -3.203125zm8.234375 2.96875q0.734375 0 1.6875 -0.4375q0.953125 -0.4375 1.65625 -1.078125l0 -5.796875q-3.171875 0 -4.75 1.078125q-1.5625 1.078125 -1.5625 2.78125q0 1.6875 0.796875 2.578125q0.796875 0.875 2.171875 0.875zm18.089478 2.859375q-2.234375 0 -3.296875 -1.015625q-1.0625 -1.03125 -1.0625 -3.25l0 -12.96875l-2.28125 0l0 -1.84375q0.28125 -0.09375 1.015625 -0.359375q0.75 -0.265625 1.125 -0.453125q0.609375 -0.453125 1.03125 -1.578125q0.3125 -0.75 1.171875 -3.671875l2.828125 0l0.140625 5.1875l5.390625 0l0 2.71875l-5.359375 0l0 9.921875q0 1.984375 0.09375 2.796875q0.109375 0.8125 0.46875 1.046875q0.359375 0.21875 1.234375 0.21875q0.890625 0 1.84375 -0.1875q0.953125 -0.203125 1.578125 -0.484375l0.671875 1.984375q-0.984375 0.734375 -2.890625 1.34375q-1.90625 0.59375 -3.703125 0.59375zm17.38263 0.078125q-4.671875 0 -6.953125 -2.734375q-2.28125 -2.75 -2.28125 -7.484375q0 -3.171875 1.1875 -5.5q1.1875 -2.34375 3.34375 -3.578125q2.15625 -1.234375 4.984375 -1.234375q3.53125 0 5.4375 1.859375q1.90625 1.859375 1.96875 5.28125q0 2.328125 -0.28125 3.46875l-11.46875 0q0.140625 3.203125 1.515625 5.0q1.375 1.78125 3.921875 1.78125q1.375 0 2.84375 -0.453125q1.46875 -0.46875 2.3125 -1.109375l0.875 1.953125q-0.953125 1.015625 -3.09375 1.890625q-2.125 0.859375 -4.3125 0.859375zm2.75 -12.046875q0.0625 -0.984375 0.0625 -1.515625q0 -4.703125 -3.140625 -4.703125q-1.734375 0 -2.6875 1.375q-0.953125 1.375 -1.046875 4.84375l6.8125 0zm18.756409 -11.9375l-2.65625 -0.46875l0 -2.1875l5.34375 0q0.734375 0 2.296875 -0.0625q2.046875 -0.140625 3.703125 -0.140625q3.671814 0 5.812439 0.90625q2.140625 0.890625 3.03125 2.578125q0.90625 1.671875 0.90625 4.25q0 4.453125 -2.78125 6.921875q-2.765625 2.46875 -7.671814 2.46875q-1.9375 0 -2.796875 -0.109375l0 6.96875l4.734375 0.34375l0 2.125l-12.71875 0l0 -2.125l2.796875 -0.34375l0 -21.125zm5.15625 11.90625q0.8125 0.171875 2.765625 0.171875q2.359375 0 3.781189 -1.640625q1.4375 -1.640625 1.4375 -5.46875q0 -2.953125 -1.296875 -4.3125q-1.281189 -1.375 -3.921814 -1.375q-1.0 0 -2.0625 0.140625q-0.484375 0.078125 -0.703125 0.078125l0 12.40625zm15.586243 9.609375l2.328125 -0.28125l0 -13.921875l-2.265625 -0.640625l0 -2.4375l5.484375 -0.75l0.109375 0l0.875 0.71875l0 0.765625l-0.109375 2.875l0.109375 0q0.25 -0.71875 1.15625 -1.75q0.921875 -1.046875 2.3125 -1.84375q1.40625 -0.796875 3.03125 -0.796875q0.78125 0 1.34375 0.21875l0 5.296875q-1.0625 -0.75 -2.578125 -0.75q-2.578125 0 -4.484375 1.390625l0 11.578125l4.09375 0.328125l0 2.078125l-11.40625 0l0 -2.078125zm25.545837 2.46875q-4.671875 0 -6.953125 -2.734375q-2.28125 -2.75 -2.28125 -7.484375q0 -3.171875 1.1875 -5.5q1.1875 -2.34375 3.34375 -3.578125q2.15625 -1.234375 4.984375 -1.234375q3.53125 0 5.4375 1.859375q1.90625 1.859375 1.96875 5.28125q0 2.328125 -0.28125 3.46875l-11.46875 0q0.140625 3.203125 1.515625 5.0q1.375 1.78125 3.921875 1.78125q1.375 0 2.84375 -0.453125q1.46875 -0.46875 2.3125 -1.109375l0.875 1.953125q-0.953125 1.015625 -3.09375 1.890625q-2.125 0.859375 -4.3125 0.859375zm2.75 -12.046875q0.0625 -0.984375 0.0625 -1.515625q0 -4.703125 -3.140625 -4.703125q-1.734375 0 -2.6875 1.375q-0.953125 1.375 -1.046875 4.84375l6.8125 0zm11.696106 8.765625q0.28125 0.421875 1.28125 0.796875q1.015625 0.359375 2.03125 0.359375q1.671875 0 2.5 -0.6875q0.828125 -0.6875 0.828125 -1.8125q0 -1.171875 -1.03125 -1.890625q-1.015625 -0.734375 -3.453125 -1.78125l-1.0 -0.4375q-2.4375 -1.015625 -3.640625 -2.46875q-1.1875 -1.453125 -1.1875 -3.75q0 -1.578125 0.953125 -2.828125q0.953125 -1.265625 2.671875 -1.96875q1.734375 -0.703125 4.0 -0.703125q1.65625 0 2.84375 0.21875q1.1875 0.203125 2.484375 0.546875q0.71875 0.25 1.0625 0.296875l0 4.625l-2.78125 0l-0.8125 -2.6875q-0.21875 -0.359375 -0.96875 -0.640625q-0.734375 -0.28125 -1.6875 -0.28125q-1.453125 0 -2.3125 0.625q-0.859375 0.609375 -0.859375 1.703125q0 1.0 0.59375 1.65625q0.59375 0.640625 1.296875 1.0q0.71875 0.359375 2.625 1.171875q1.90625 0.8125 3.15625 1.5625q1.265625 0.734375 2.09375 1.921875q0.828125 1.171875 0.828125 2.875q0 2.609375 -2.046875 4.234375q-2.046875 1.625 -5.90625 1.625q-1.796875 0 -3.234375 -0.328125q-1.421875 -0.3125 -3.296875 -0.84375l-0.78125 -0.25l0 -4.65625l2.9375 0l0.8125 2.796875zm23.319702 3.28125q-4.671875 0 -6.953125 -2.734375q-2.28125 -2.75 -2.28125 -7.484375q0 -3.171875 1.1875 -5.5q1.1875 -2.34375 3.34375 -3.578125q2.15625 -1.234375 4.984375 -1.234375q3.53125 0 5.4375 1.859375q1.90625 1.859375 1.96875 5.28125q0 2.328125 -0.28125 3.46875l-11.46875 0q0.140625 3.203125 1.515625 5.0q1.375 1.78125 3.921875 1.78125q1.375 0 2.84375 -0.453125q1.46875 -0.46875 2.3125 -1.109375l0.875 1.953125q-0.953125 1.015625 -3.09375 1.890625q-2.125 0.859375 -4.3125 0.859375zm2.75 -12.046875q0.0625 -0.984375 0.0625 -1.515625q0 -4.703125 -3.140625 -4.703125q-1.734375 0 -2.6875 1.375q-0.953125 1.375 -1.046875 4.84375l6.8125 0zm9.74292 -4.625l-2.25 -0.640625l0 -2.4375l5.859375 -0.75l0.109375 0l0.875 0.71875l0 1.375l-0.03125 0.84375q1.234375 -1.15625 3.203125 -2.0q1.984375 -0.859375 4.0 -0.859375q2.15625 0 3.375 0.796875q1.21875 0.796875 1.75 2.5q0.53125 1.6875 0.53125 4.578125l0 9.75l2.15625 0.28125l0 2.125l-9.109375 0l0 -2.125l1.90625 -0.28125l0 -9.75q0 -1.828125 -0.25 -2.875q-0.25 -1.046875 -0.90625 -1.515625q-0.65625 -0.484375 -1.84375 -0.484375q-2.015625 0 -4.3125 1.734375l0 12.859375l2.109375 0.3125l0 2.125l-9.21875 0l0 -2.125l2.046875 -0.3125l0 -13.84375zm28.027222 16.59375q-2.234375 0 -3.296875 -1.015625q-1.0625 -1.03125 -1.0625 -3.25l0 -12.96875l-2.28125 0l0 -1.84375q0.28125 -0.09375 1.015625 -0.359375q0.75 -0.265625 1.125 -0.453125q0.609375 -0.453125 1.03125 -1.578125q0.3125 -0.75 1.171875 -3.671875l2.828125 0l0.140625 5.1875l5.390625 0l0 2.71875l-5.359375 0l0 9.921875q0 1.984375 0.09375 2.796875q0.109375 0.8125 0.46875 1.046875q0.359375 0.21875 1.234375 0.21875q0.890625 0 1.84375 -0.1875q0.953125 -0.203125 1.578125 -0.484375l0.671875 1.984375q-0.984375 0.734375 -2.890625 1.34375q-1.90625 0.59375 -3.703125 0.59375zm8.085815 -5.828125q0 -3.203125 3.234375 -4.828125q3.234375 -1.625 8.34375 -1.671875l0 -0.8125q0 -1.4375 -0.296875 -2.25q-0.296875 -0.8125 -1.09375 -1.21875q-0.796875 -0.40625 -2.3125 -0.40625q-1.734375 0 -3.109375 0.4375q-1.375 0.4375 -2.859375 1.140625l-1.09375 -2.25q0.53125 -0.46875 1.78125 -1.09375q1.25 -0.640625 2.984375 -1.109375q1.734375 -0.484375 3.5625 -0.484375q2.734375 0 4.265625 0.703125q1.53125 0.703125 2.203125 2.265625q0.671875 1.546875 0.671875 4.15625l0 10.8125l1.90625 0l0 1.984375q-0.703125 0.171875 -2.015625 0.34375q-1.296875 0.1875 -2.296875 0.1875q-1.1875 0 -1.59375 -0.359375q-0.40625 -0.34375 -0.40625 -1.4375l0 -0.953125q-0.953125 1.046875 -2.484375 1.90625q-1.515625 0.84375 -3.421875 0.84375q-1.625 0 -2.984375 -0.6875q-1.359375 -0.6875 -2.171875 -2.015625q-0.8125 -1.328125 -0.8125 -3.203125zm8.234375 2.96875q0.734375 0 1.6875 -0.4375q0.953125 -0.4375 1.65625 -1.078125l0 -5.796875q-3.171875 0 -4.75 1.078125q-1.5625 1.078125 -1.5625 2.78125q0 1.6875 0.796875 2.578125q0.796875 0.875 2.171875 0.875zm18.089478 2.859375q-2.234375 0 -3.296875 -1.015625q-1.0625 -1.03125 -1.0625 -3.25l0 -12.96875l-2.28125 0l0 -1.84375q0.28125 -0.09375 1.015625 -0.359375q0.75 -0.265625 1.125 -0.453125q0.609375 -0.453125 1.03125 -1.578125q0.3125 -0.75 1.171875 -3.671875l2.828125 0l0.140625 5.1875l5.390625 0l0 2.71875l-5.359375 0l0 9.921875q0 1.984375 0.09375 2.796875q0.109375 0.8125 0.46875 1.046875q0.359375 0.21875 1.234375 0.21875q0.890625 0 1.84375 -0.1875q0.953125 -0.203125 1.578125 -0.484375l0.671875 1.984375q-0.984375 0.734375 -2.890625 1.34375q-1.90625 0.59375 -3.703125 0.59375zm12.679443 -23.171875q-1.28125 0 -2.03125 -0.734375q-0.734375 -0.75 -0.734375 -1.90625q0 -1.34375 0.84375 -2.21875q0.859375 -0.890625 2.265625 -0.890625q1.421875 0 2.15625 0.765625q0.75 0.75 0.75 1.875q0 1.421875 -0.859375 2.265625q-0.84375 0.84375 -2.359375 0.84375l-0.03125 0zm-1.875 6.578125l-2.515625 -0.671875l0 -2.375l6.46875 -0.78125l0.078125 0l0.984375 0.71875l0 16.984375l2.375 0.28125l0 2.125l-9.859375 0l0 -2.125l2.46875 -0.3125l0 -13.84375zm9.930786 6.5q0 -3.328125 1.3125 -5.65625q1.328125 -2.328125 3.546875 -3.515625q2.234375 -1.1875 4.859375 -1.1875q4.4375 0 6.859375 2.75q2.421875 2.734375 2.421875 7.421875q0 3.359375 -1.328125 5.71875q-1.3125 2.34375 -3.53125 3.5q-2.203125 1.140625 -4.859375 1.140625q-4.40625 0 -6.84375 -2.734375q-2.4375 -2.75 -2.4375 -7.4375zm9.5625 7.875q4.0 0 4.0 -7.703125q0 -4.03125 -0.953125 -6.125q-0.953125 -2.109375 -3.109375 -2.109375q-4.09375 0 -4.09375 7.703125q0 4.03125 1.0 6.140625q1.015625 2.09375 3.15625 2.09375zm14.627686 -14.375l-2.25 -0.640625l0 -2.4375l5.859375 -0.75l0.109375 0l0.875 0.71875l0 1.375l-0.03125 0.84375q1.234375 -1.15625 3.203125 -2.0q1.984375 -0.859375 4.0 -0.859375q2.15625 0 3.375 0.796875q1.21875 0.796875 1.75 2.5q0.53125 1.6875 0.53125 4.578125l0 9.75l2.15625 0.28125l0 2.125l-9.109375 0l0 -2.125l1.90625 -0.28125l0 -9.75q0 -1.828125 -0.25 -2.875q-0.25 -1.046875 -0.90625 -1.515625q-0.65625 -0.484375 -1.84375 -0.484375q-2.015625 0 -4.3125 1.734375l0 12.859375l2.109375 0.3125l0 2.125l-9.21875 0l0 -2.125l2.046875 -0.3125l0 -13.84375z" fill-rule="nonzero"/></g></svg>